<svg width="24" height="24" viewBox="0 0 24 24" fill="none" xmlns="http://www.w3.org/2000/svg">
<g id="add_photo_alternate">
<mask id="mask0_720_29455" style="mask-type:alpha" maskUnits="userSpaceOnUse" x="0" y="-1" width="24" height="25">
<rect id="Bounding box" y="-0.00390625" width="24" height="24" fill="#D9D9D9"/>
</mask>
<g mask="url(#mask0_720_29455)">
<path id="add_photo_alternate_2" d="M5.23259 19.9958C4.78835 19.9958 4.40806 19.8376 4.09171 19.5213C3.77536 19.2049 3.61719 18.8246 3.61719 18.3804V5.61116C3.61719 5.16693 3.77536 4.78665 4.09171 4.47031C4.40806 4.15396 4.78835 3.99579 5.23259 3.99579H13.6172V4.99579H5.23259C5.0531 4.99579 4.90567 5.05348 4.79029 5.16886C4.67489 5.28424 4.61719 5.43168 4.61719 5.61116V18.3804C4.61719 18.5599 4.67489 18.7073 4.79029 18.8227C4.90567 18.9381 5.0531 18.9958 5.23259 18.9958H18.0018C18.1813 18.9958 18.3287 18.9381 18.4441 18.8227C18.5595 18.7073 18.6172 18.5599 18.6172 18.3804V9.99579H19.6172V18.3804C19.6172 18.8246 19.459 19.2049 19.1427 19.5213C18.8263 19.8376 18.446 19.9958 18.0018 19.9958H5.23259ZM17.3864 8.22656V6.22656H15.3864V5.22656H17.3864V3.22656H18.3864V5.22656H20.3864V6.22656H18.3864V8.22656H17.3864ZM7.11719 16.4958H16.2711L13.4441 12.7266L10.8287 16.0342L9.07874 13.9189L7.11719 16.4958Z" fill="#606779"/>
</g>
</g>
</svg>
