<svg width="108" height="109" viewBox="0 0 108 109" fill="none" xmlns="http://www.w3.org/2000/svg">
<g id="empty-cart">
<path id="Vector" d="M103.372 54.4993C103.372 27.2109 81.247 5.20605 54.0784 5.20605C38.4432 5.20605 24.5024 12.4922 15.4756 23.845C8.78253 32.2557 4.78516 42.9076 4.78516 54.4993C4.78516 71.0263 12.9423 85.7472 25.5807 94.7272C33.6294 100.434 43.4649 103.793 54.0784 103.793C81.3862 103.793 103.372 81.6467 103.372 54.4993Z" fill="#D6DCE8"/>
<path id="Vector_2" d="M20.918 90.96C22.3948 92.3051 23.9491 93.5678 25.5809 94.7272C33.6295 100.434 43.465 103.793 54.0785 103.793C66.1553 103.793 77.9489 99.4252 87.2409 90.96H20.918Z" fill="url(#paint0_linear_136_13507)"/>
<path id="Vector_3" d="M100.671 16.7831C101.655 15.9322 101.753 14.4306 100.902 13.4458C100.051 12.4611 98.5626 12.3524 97.5777 13.2032C96.5929 14.0541 96.4711 15.5539 97.3219 16.5387C98.1727 17.5235 99.6858 17.6339 100.671 16.7831ZM101.887 22.4545C102.514 21.9129 102.575 20.9572 102.034 20.3304C101.492 19.7036 100.545 19.6344 99.9183 20.176C99.2915 20.7175 99.214 21.6721 99.7555 22.2989C100.297 22.9257 101.26 22.996 101.887 22.4545ZM101.853 85.0154C103.036 85.5581 104.442 85.0229 104.985 83.84C105.528 82.6571 105.008 81.258 103.825 80.7154C102.642 80.1728 101.227 80.6847 100.685 81.8676C100.142 83.0505 100.67 84.4728 101.853 85.0154ZM97.8367 89.7968C98.5896 90.1422 99.4847 89.8015 99.83 89.0486C100.175 88.2957 99.845 87.4053 99.092 87.0599C98.3391 86.7146 97.4385 87.0404 97.0932 87.7933C96.7478 88.5462 97.0838 89.4514 97.8367 89.7968ZM6.80309 87.787C7.78795 86.9362 7.88506 85.4346 7.03425 84.4498C6.18345 83.465 4.69511 83.3563 3.71025 84.2072C2.72548 85.058 2.60361 86.5579 3.45441 87.5426C4.30522 88.5274 5.81832 88.6378 6.80309 87.787Z" fill="#D6DCE8"/>
<path id="Vector_4" d="M85.9663 87.5436C85.9663 90.9817 83.1846 93.7634 79.751 93.7634C76.3128 93.7634 73.5312 90.9817 73.5312 87.5436C73.5312 84.1099 76.3128 81.3281 79.751 81.3281C83.1846 81.3281 85.9663 84.1099 85.9663 87.5436Z" fill="url(#paint1_linear_136_13507)"/>
<path id="Vector_5" d="M38.0538 87.3281L26.5574 21.376H22.3223L33.9387 88.0308C34.1123 89.0487 34.995 89.7669 35.9939 89.7669C36.1104 89.7669 36.2287 89.7574 36.3476 89.737C37.4841 89.5434 38.2478 88.4643 38.0538 87.3281Z" fill="#AAB2C5"/>
<path id="Vector_6" d="M41.6206 87.5436C41.6206 90.9817 38.8389 93.7634 35.4053 93.7634C31.9671 93.7634 29.1855 90.9817 29.1855 87.5436C29.1855 84.1099 31.9671 81.3281 35.4053 81.3281C38.8389 81.3281 41.6206 84.1099 41.6206 87.5436Z" fill="url(#paint2_linear_136_13507)"/>
<path id="Vector_7" d="M79.1419 85.592H26.6941L13.7708 21.376H9.51562L22.9296 88.0831C23.1223 89.0616 23.9805 89.7669 24.9777 89.7669H79.1419C80.2947 89.7669 81.2294 88.8326 81.2294 87.6794C81.2294 86.5263 80.2947 85.592 79.1419 85.592Z" fill="#AAB2C5"/>
<path id="Vector_8" d="M92.5473 32.7187L85.589 69.7992C85.0881 72.4919 82.7362 74.4472 79.9877 74.4472H66.2173C65.8346 74.4472 65.5215 74.1409 65.5215 73.7514C65.5215 73.3687 65.8346 73.0556 66.2173 73.0556C68.2909 73.0556 70.0722 71.5804 70.4549 69.5416L77.4061 32.4611C77.4618 32.1341 77.7541 31.8975 78.0881 31.8975H91.8654C92.0741 31.8975 92.269 31.988 92.4012 32.148C92.5334 32.3081 92.589 32.5168 92.5473 32.7187Z" fill="url(#paint3_linear_136_13507)"/>
<path id="Vector_9" d="M78.77 32.7187L71.8257 69.7992C71.3177 72.4919 68.9658 74.4472 66.2243 74.4472H24.8018C22.0881 74.4472 19.7362 72.5128 19.2143 69.8478L11.9082 32.7255C11.8664 32.5238 11.9221 32.315 12.0543 32.155C12.1865 31.988 12.3814 31.8975 12.5901 31.8975H78.0881C78.2968 31.8975 78.4916 31.988 78.6238 32.148C78.756 32.3081 78.8117 32.5168 78.77 32.7187Z" fill="url(#paint4_linear_136_13507)"/>
<path id="Vector_10" d="M30.6011 87.5436C30.6011 90.9817 27.8194 93.7634 24.3857 93.7634C20.9475 93.7634 18.166 90.9817 18.166 87.5436C18.166 84.1099 20.9475 81.3281 24.3857 81.3281C27.8194 81.3281 30.6011 84.1099 30.6011 87.5436Z" fill="url(#paint5_linear_136_13507)"/>
<path id="Vector_11" d="M27.0552 87.5453C27.0552 89.0223 25.8601 90.2174 24.385 90.2174C22.9079 90.2174 21.7129 89.0223 21.7129 87.5453C21.7129 86.0701 22.9079 84.875 24.385 84.875C25.8601 84.875 27.0552 86.0701 27.0552 87.5453Z" fill="url(#paint6_linear_136_13507)"/>
<path id="Vector_12" d="M75.0152 87.5436C75.0152 90.9817 72.2334 93.7634 68.7998 93.7634C65.3616 93.7634 62.5801 90.9817 62.5801 87.5436C62.5801 84.1099 65.3616 81.3281 68.7998 81.3281C72.2334 81.3281 75.0152 84.1099 75.0152 87.5436Z" fill="url(#paint7_linear_136_13507)"/>
<path id="Vector_13" d="M71.4693 87.5453C71.4693 89.0223 70.2742 90.2174 68.7991 90.2174C67.3219 90.2174 66.127 89.0223 66.127 87.5453C66.127 86.0701 67.3219 84.875 68.7991 84.875C70.2742 84.875 71.4693 86.0701 71.4693 87.5453Z" fill="url(#paint8_linear_136_13507)"/>
<path id="Vector_14" d="M29.0405 20.7493V22.8673C29.0405 23.4505 28.5677 23.9232 27.9845 23.9232H6.73579C5.14999 23.9232 3.71386 22.9866 3.07448 21.5354L2.88769 21.1115C2.59339 20.4435 3.08259 19.6934 3.81254 19.6934H27.9845C28.5677 19.6934 29.0405 20.1661 29.0405 20.7493Z" fill="#AAB2C5"/>
<path id="Vector_15" d="M46.9829 43.1077V63.2365C46.9829 64.0084 46.3571 64.6342 45.5852 64.6342C44.8133 64.6342 44.1875 64.0084 44.1875 63.2365V43.1077C44.1875 42.3357 44.8133 41.71 45.5852 41.71C46.3571 41.71 46.9829 42.3357 46.9829 43.1077Z" fill="url(#paint9_linear_136_13507)"/>
<path id="Vector_16" d="M55.2407 43.1077V63.2365C55.2407 64.0084 54.615 64.6342 53.843 64.6342C53.0711 64.6342 52.4453 64.0084 52.4453 63.2365V43.1077C52.4453 42.3357 53.0711 41.71 53.843 41.71C54.6149 41.71 55.2407 42.3357 55.2407 43.1077Z" fill="url(#paint10_linear_136_13507)"/>
<path id="Vector_17" d="M63.4985 43.1077V63.2365C63.4985 64.0084 62.8728 64.6342 62.1008 64.6342C61.3289 64.6342 60.7031 64.0084 60.7031 63.2365V43.1077C60.7031 42.3357 61.3289 41.71 62.1008 41.71C62.8728 41.71 63.4985 42.3357 63.4985 43.1077Z" fill="url(#paint11_linear_136_13507)"/>
<path id="Vector_18" d="M38.479 43.1077V63.2365C38.479 64.0084 37.8532 64.6342 37.0813 64.6342C36.3094 64.6342 35.6836 64.0084 35.6836 63.2365V43.1077C35.6836 42.3357 36.3094 41.71 37.0813 41.71C37.8532 41.71 38.479 42.3357 38.479 43.1077Z" fill="url(#paint12_linear_136_13507)"/>
<path id="Vector_19" d="M29.9771 43.1077V63.2365C29.9771 64.0084 29.3513 64.6342 28.5793 64.6342C27.8074 64.6342 27.1816 64.0084 27.1816 63.2365V43.1077C27.1816 42.3357 27.8074 41.71 28.5793 41.71C29.3513 41.71 29.9771 42.3357 29.9771 43.1077Z" fill="url(#paint13_linear_136_13507)"/>
<g id="Group">
<path id="Vector_20" d="M61.7295 32.4801C66.7873 27.4224 66.7873 19.2221 61.7295 14.1644C56.6717 9.10663 48.4715 9.10663 43.4137 14.1644C38.356 19.2221 38.356 27.4224 43.4137 32.4801C48.4715 37.5379 56.6717 37.5379 61.7295 32.4801Z" fill="white"/>
<path id="Vector_21" d="M52.5711 37.0738C44.9891 37.0738 38.8203 30.9051 38.8203 23.3225C38.8203 15.74 44.9891 9.57129 52.5711 9.57129C60.1539 9.57129 66.3227 15.74 66.3227 23.3225C66.3227 30.9051 60.1539 37.0738 52.5711 37.0738ZM52.5711 11.1713C45.8711 11.1713 40.4203 16.6223 40.4203 23.3225C40.4203 30.0227 45.8711 35.4738 52.5711 35.4738C59.2719 35.4738 64.7227 30.0227 64.7227 23.3225C64.7227 16.6223 59.2719 11.1713 52.5711 11.1713Z" fill="#AAB2C5"/>
</g>
<path id="Vector_22" d="M58.7515 29.5018C62.1644 26.0889 62.1644 20.5556 58.7515 17.1427C55.3387 13.7298 49.8053 13.7299 46.3924 17.1427C42.9796 20.5556 42.9796 26.0889 46.3924 29.5018C49.8053 32.9147 55.3387 32.9147 58.7515 29.5018Z" fill="#AAB2C5"/>
<g id="Group_2">
<path id="Vector_23" d="M56.2942 27.0432C55.8437 27.4937 55.1326 27.4595 54.7238 27.0432L52.5738 24.8932L50.4199 27.0432C49.9851 27.4779 49.2842 27.4779 48.8495 27.0432C48.4132 26.607 48.4193 25.903 48.8495 25.4728L50.9995 23.3228L48.8495 21.1728C48.4148 20.7381 48.4148 20.0332 48.8495 19.6024C49.2571 19.1873 49.9682 19.1507 50.4199 19.6024L52.5738 21.7524L54.7238 19.6024C55.1585 19.1677 55.8595 19.1677 56.2942 19.6024C56.7302 20.0307 56.7251 20.7495 56.2942 21.1728L54.1442 23.3228L56.2942 25.4728C56.7289 25.9075 56.7289 26.6124 56.2942 27.0432Z" fill="white"/>
</g>
</g>
<defs>
<linearGradient id="paint0_linear_136_13507" x1="53.636" y1="109.017" x2="54.0912" y2="90.4747" gradientUnits="userSpaceOnUse">
<stop stop-color="#D6DCE8"/>
<stop offset="1" stop-color="white"/>
</linearGradient>
<linearGradient id="paint1_linear_136_13507" x1="73.5311" y1="87.5455" x2="85.9663" y2="87.5455" gradientUnits="userSpaceOnUse">
<stop stop-color="#989FB0"/>
<stop offset="1" stop-color="#AAB2C5"/>
</linearGradient>
<linearGradient id="paint2_linear_136_13507" x1="29.1859" y1="87.5455" x2="41.6203" y2="87.5455" gradientUnits="userSpaceOnUse">
<stop stop-color="#989FB0"/>
<stop offset="1" stop-color="#AAB2C5"/>
</linearGradient>
<linearGradient id="paint3_linear_136_13507" x1="79.064" y1="53.1745" x2="87.8536" y2="54.0249" gradientUnits="userSpaceOnUse">
<stop stop-color="#989FB0"/>
<stop offset="1" stop-color="#AAB2C5"/>
</linearGradient>
<linearGradient id="paint4_linear_136_13507" x1="11.8944" y1="53.1721" x2="78.784" y2="53.1721" gradientUnits="userSpaceOnUse">
<stop stop-color="#AAB2C5"/>
<stop offset="1" stop-color="#D6DCE8"/>
</linearGradient>
<linearGradient id="paint5_linear_136_13507" x1="18.1657" y1="87.5455" x2="30.6009" y2="87.5455" gradientUnits="userSpaceOnUse">
<stop stop-color="#989FB0"/>
<stop offset="1" stop-color="#AAB2C5"/>
</linearGradient>
<linearGradient id="paint6_linear_136_13507" x1="21.7126" y1="87.546" x2="27.055" y2="87.546" gradientUnits="userSpaceOnUse">
<stop stop-color="#D6DCE8"/>
<stop offset="1" stop-color="#F1F3F9"/>
</linearGradient>
<linearGradient id="paint7_linear_136_13507" x1="62.58" y1="87.5455" x2="75.0152" y2="87.5455" gradientUnits="userSpaceOnUse">
<stop stop-color="#989FB0"/>
<stop offset="1" stop-color="#AAB2C5"/>
</linearGradient>
<linearGradient id="paint8_linear_136_13507" x1="66.1269" y1="87.546" x2="71.4693" y2="87.546" gradientUnits="userSpaceOnUse">
<stop stop-color="#D6DCE8"/>
<stop offset="1" stop-color="#F1F3F9"/>
</linearGradient>
<linearGradient id="paint9_linear_136_13507" x1="44.1878" y1="53.1718" x2="46.983" y2="53.1718" gradientUnits="userSpaceOnUse">
<stop stop-color="#D6DCE8"/>
<stop offset="1" stop-color="#F1F3F9"/>
</linearGradient>
<linearGradient id="paint10_linear_136_13507" x1="52.4453" y1="53.1718" x2="55.2405" y2="53.1718" gradientUnits="userSpaceOnUse">
<stop stop-color="#D6DCE8"/>
<stop offset="1" stop-color="#F1F3F9"/>
</linearGradient>
<linearGradient id="paint11_linear_136_13507" x1="60.7028" y1="53.1718" x2="63.4988" y2="53.1718" gradientUnits="userSpaceOnUse">
<stop stop-color="#D6DCE8"/>
<stop offset="1" stop-color="#F1F3F9"/>
</linearGradient>
<linearGradient id="paint12_linear_136_13507" x1="35.6833" y1="53.1718" x2="38.4793" y2="53.1718" gradientUnits="userSpaceOnUse">
<stop stop-color="#D6DCE8"/>
<stop offset="1" stop-color="#F1F3F9"/>
</linearGradient>
<linearGradient id="paint13_linear_136_13507" x1="27.1816" y1="53.1718" x2="29.9768" y2="53.1718" gradientUnits="userSpaceOnUse">
<stop stop-color="#D6DCE8"/>
<stop offset="1" stop-color="#F1F3F9"/>
</linearGradient>
</defs>
</svg>
