<svg width="49" height="49" viewBox="0 0 49 49" fill="none" xmlns="http://www.w3.org/2000/svg">
<g id="Icon">
<path id="Vector" d="M1.36478 37.3794C1.36478 37.272 1.31923 37.1691 1.23815 37.0932C1.15706 37.0173 1.04708 36.9746 0.932402 36.9746C0.817724 36.9746 0.707748 37.0173 0.626658 37.0932C0.545569 37.1691 0.5 37.272 0.5 37.3794V38.654C0.5 38.7614 0.545569 38.8643 0.626658 38.9403C0.707748 39.0162 0.817724 39.0588 0.932402 39.0588C1.04708 39.0588 1.15706 39.0162 1.23815 38.9403C1.31923 38.8643 1.36478 38.7614 1.36478 38.654V37.3794Z" fill="#63811E"/>
<path id="Vector_2" d="M0.932402 40.0312C0.817724 40.0313 0.707748 40.0739 0.626658 40.1498C0.545569 40.2257 0.5 40.3287 0.5 40.436V48.5935C0.5 48.7008 0.545569 48.8038 0.626658 48.8797C0.707748 48.9556 0.817724 48.9982 0.932402 48.9982C1.04708 48.9982 1.15706 48.9556 1.23815 48.8797C1.31923 48.8038 1.36478 48.7008 1.36478 48.5935V40.436C1.36478 40.3829 1.35361 40.3302 1.33188 40.2811C1.31015 40.232 1.2783 40.1874 1.23815 40.1498C1.19799 40.1122 1.15032 40.0824 1.09786 40.0621C1.0454 40.0417 0.989184 40.0312 0.932402 40.0312Z" fill="#63811E"/>
<path id="Vector_3" d="M28.6773 10.1383C22.8832 8.86796 16.8538 8.86796 11.0597 10.1383L8.85938 11.8737C16.1569 11.0168 23.5402 11.0168 30.8377 11.8737L28.6773 10.1383Z" fill="#63811E"/>
<path id="Vector_4" d="M21.002 34.2869C22.4555 34.8453 23.3755 35.8329 23.7864 37.2754C25.4945 35.4683 26.3148 33.5778 26.2857 31.5166L24.8873 29.873C24.1544 31.9085 22.8756 33.364 21.002 34.2869Z" fill="#63811E"/>
<path id="Vector_5" d="M11.3418 9.26442C16.9566 8.08167 22.7819 8.08167 28.3967 9.26442L28.297 8.18786C22.7495 7.00509 16.989 7.00509 11.4415 8.18786L11.3418 9.26442Z" fill="#63811E"/>
<path id="Vector_6" d="M28.0209 12.4025C22.58 11.9231 17.103 11.9231 11.6621 12.4025V19.0643C11.6915 21.0769 12.5663 22.9978 14.097 24.4113C15.6277 25.8248 17.6914 26.6173 19.8415 26.6173C21.9916 26.6173 24.0553 25.8248 25.586 24.4113C27.1168 22.9978 27.9915 21.0769 28.0209 19.0643V12.4025ZM14.997 16.4217V16.4375C15.0006 16.4926 14.992 16.5477 14.9719 16.5996C14.9518 16.6515 14.9206 16.699 14.8801 16.7391C14.8397 16.7793 14.7909 16.8113 14.7368 16.8332C14.6827 16.8551 14.6244 16.8664 14.5654 16.8664C14.5065 16.8664 14.4481 16.8551 14.394 16.8332C14.3399 16.8113 14.2911 16.7793 14.2507 16.7391C14.2103 16.699 14.1791 16.6515 14.1589 16.5996C14.1388 16.5477 14.1303 16.4926 14.1338 16.4375C14.1303 16.0454 14.2934 15.668 14.5871 15.3885C14.8809 15.1089 15.2812 14.95 15.7001 14.9468C16.1189 14.9436 16.522 15.0962 16.8206 15.3712C17.1192 15.6462 17.2889 16.021 17.2924 16.4131V16.4375C17.2959 16.4926 17.2873 16.5477 17.2672 16.5996C17.2471 16.6515 17.2159 16.699 17.1755 16.7391C17.1351 16.7793 17.0863 16.8113 17.0322 16.8332C16.978 16.8551 16.9197 16.8664 16.8608 16.8664C16.8018 16.8664 16.7435 16.8551 16.6894 16.8332C16.6352 16.8113 16.5865 16.7793 16.546 16.7391C16.5056 16.699 16.4744 16.6515 16.4543 16.5996C16.4342 16.5477 16.4256 16.4926 16.4291 16.4375C16.4314 16.2597 16.3581 16.0884 16.2254 15.9612C16.0927 15.834 15.9114 15.7613 15.7215 15.7592C15.5316 15.7572 15.3486 15.8258 15.2127 15.95C15.0769 16.0742 14.9993 16.2439 14.997 16.4217ZM24.0665 23.1566C24.0416 23.2088 24.0051 23.2555 23.9593 23.2933C23.9135 23.3312 23.8597 23.3595 23.8013 23.3762C23.2892 23.5306 22.7553 23.6124 22.2174 23.6188C21.3766 23.6326 20.5591 23.3596 19.9174 22.8509C18.8334 23.5471 17.4994 23.7265 15.9446 23.382C15.8894 23.3698 15.8373 23.3476 15.7912 23.3165C15.7452 23.2855 15.7062 23.2462 15.6764 23.201C15.6466 23.1558 15.6267 23.1055 15.6177 23.0531C15.6088 23.0006 15.6109 22.947 15.6242 22.8954C15.6295 22.8723 15.6372 22.8497 15.6472 22.8279C16.144 21.7614 16.8891 20.5069 18.2706 20.2671C19.0772 20.1236 20.6825 20.0963 21.466 20.2671C22.846 20.5758 23.5851 21.7944 24.0726 22.8222C24.0964 22.8743 24.1082 22.9305 24.1071 22.9871C24.1061 23.0438 24.0922 23.0996 24.0665 23.1509V23.1566ZM25.5492 16.4375C25.5527 16.4926 25.5442 16.5477 25.5241 16.5996C25.504 16.6515 25.4727 16.699 25.4323 16.7391C25.3919 16.7793 25.3431 16.8113 25.289 16.8332C25.2349 16.8551 25.1766 16.8664 25.1176 16.8664C25.0587 16.8664 25.0003 16.8551 24.9462 16.8332C24.8921 16.8113 24.8433 16.7793 24.8029 16.7391C24.7625 16.699 24.7312 16.6515 24.7111 16.5996C24.691 16.5477 24.6825 16.4926 24.686 16.4375C24.6914 16.3471 24.6773 16.2566 24.6444 16.1714C24.6114 16.0863 24.5604 16.0082 24.4944 15.9421C24.4284 15.8759 24.3487 15.8229 24.2602 15.7863C24.1717 15.7498 24.0762 15.7304 23.9795 15.7293C23.8828 15.7282 23.7868 15.7455 23.6974 15.7801C23.6081 15.8147 23.5271 15.8659 23.4594 15.9306C23.3918 15.9953 23.3388 16.0722 23.3037 16.1566C23.2687 16.241 23.2522 16.3312 23.2554 16.4217V16.4375C23.2554 16.5448 23.2099 16.6478 23.1288 16.7237C23.0477 16.7996 22.9377 16.8423 22.823 16.8423C22.7083 16.8423 22.5984 16.7996 22.5173 16.7237C22.4362 16.6478 22.3906 16.5448 22.3906 16.4375C22.3872 16.0454 22.5502 15.668 22.844 15.3885C23.1377 15.1089 23.538 14.95 23.9569 14.9468C24.3758 14.9436 24.7788 15.0962 25.0774 15.3712C25.3761 15.6462 25.5458 16.021 25.5492 16.4131V16.4375Z" fill="#63811E"/>
<path id="Vector_7" d="M21.2683 21.0518C20.6151 20.9083 19.1385 20.9327 18.4317 21.0518C17.6175 21.1954 17.0686 21.9303 16.6699 22.681C17.8751 22.849 18.8625 22.6265 19.6752 22.0021C19.7586 21.9379 19.8647 21.9053 19.9725 21.9106C20.0803 21.9159 20.1821 21.9588 20.2579 22.0308C20.98 22.7198 21.9015 22.9437 23.0638 22.7112C22.6713 21.9791 22.1177 21.2413 21.2683 21.0518Z" fill="#63811E"/>
<path id="Vector_8" d="M31.02 17.1736C31.02 16.6431 30.7959 16.1342 30.3967 15.7577C29.9974 15.3812 29.4553 15.1679 28.8887 15.1641V19.1832C29.4553 19.1794 29.9974 18.966 30.3967 18.5896C30.7959 18.2131 31.02 17.7041 31.02 17.1736Z" fill="#63811E"/>
<path id="Vector_9" d="M41.9096 23.125H39.375V25.3685H41.9096V23.125Z" fill="#63811E"/>
<path id="Vector_10" d="M40.588 32.2012C38.5825 32.2012 37.9569 32.6433 37.0093 33.3136C36.7026 33.5261 36.3699 33.7658 35.9482 34.017H45.6249C45.1741 33.7701 44.8107 33.5332 44.4857 33.3237C43.4399 32.6476 42.753 32.2012 40.588 32.2012Z" fill="#63811E"/>
<path id="Vector_11" d="M40.9469 9.3523C40.1613 9.27727 39.3761 9.49729 38.7637 9.964C38.1513 10.4307 37.7618 11.1059 37.681 11.8413C37.661 12.0298 37.661 12.2198 37.681 12.4083L38.7666 22.3126H42.5201L43.6056 12.4083C43.6858 11.673 43.4507 10.938 42.9521 10.365C42.4536 9.7919 41.7323 9.42765 40.9469 9.3523Z" fill="#63811E"/>
<path id="Vector_12" d="M44.1514 26.1797H37.135C37.0321 26.1797 36.9335 26.2179 36.8607 26.286C36.788 26.3542 36.7471 26.4465 36.7471 26.5428V28.983C36.7471 30.0592 36.914 31.1297 37.2423 32.161C37.9967 31.706 38.8753 31.3917 40.588 31.3917C42.3329 31.3917 43.2698 31.6787 44.0625 32.1094C44.3793 31.0962 44.5399 30.0459 44.5393 28.9902V26.55C44.5403 26.5017 44.5311 26.4537 44.512 26.4088C44.493 26.3639 44.4646 26.3231 44.4284 26.2886C44.3923 26.2541 44.3492 26.2267 44.3016 26.208C44.2541 26.1893 44.203 26.1797 44.1514 26.1797Z" fill="#63811E"/>
<path id="Vector_13" d="M28.2192 7.33968L28.1256 6.33489C27.9902 4.87823 27.2763 3.52203 26.125 2.53401C24.9736 1.54598 23.4684 0.997927 21.9066 0.998047H17.8341C16.2723 0.998256 14.7673 1.54642 13.616 2.53438C12.4648 3.52234 11.7508 4.87835 11.615 6.33489L11.5215 7.33968C17.0216 6.20714 22.719 6.20714 28.2192 7.33968Z" fill="#63811E"/>
<path id="Vector_14" d="M28.2599 31.8008H27.1529C27.1008 34.1864 26.0137 36.351 23.8379 38.4037C23.7806 38.456 23.7091 38.4925 23.6311 38.5092C23.5531 38.5259 23.4717 38.5222 23.3959 38.4985C23.32 38.4748 23.2525 38.4319 23.201 38.3747C23.1494 38.3175 23.1156 38.248 23.1034 38.174C22.8489 36.4314 21.9243 35.3735 20.2178 34.8726V40.5697H27.5347L28.2599 31.8008Z" fill="#63811E"/>
<path id="Vector_15" d="M24.2742 28.9601V26.4453C22.9209 27.1573 21.3946 27.5313 19.8422 27.5313C18.2898 27.5313 16.7635 27.1573 15.4102 26.4453V28.9659C16.1262 31.5353 17.4801 33.0726 19.7862 33.9252C22.1398 33.0482 23.5704 31.4664 24.2742 28.9601Z" fill="#63811E"/>
<path id="Vector_16" d="M8.71387 17.1736C8.71365 17.697 8.93158 18.1999 9.32131 18.5752C9.71104 18.9505 10.2418 19.1686 10.8007 19.1832V15.1641C10.2418 15.1786 9.71104 15.3968 9.32131 15.7721C8.93158 16.1474 8.71365 16.6502 8.71387 17.1736Z" fill="#63811E"/>
<path id="Vector_17" d="M30.3752 39.6367L30.4074 31.8008H29.1271L28.3605 41.0089C28.3523 41.1106 28.3033 41.2056 28.2234 41.2748C28.1435 41.3441 28.0385 41.3824 27.9296 41.3821H11.7134C11.6045 41.3824 11.4995 41.3441 11.4196 41.2748C11.3396 41.2056 11.2907 41.1106 11.2825 41.0089L10.5511 31.8051H9.30917V39.6596C9.30611 42.7859 8.57787 45.8743 7.1748 48.7113H32.4912C31.091 45.8659 30.369 42.7694 30.3752 39.6367Z" fill="#63811E"/>
<path id="Vector_18" d="M32.2839 34.0186H34.1238C34.4305 33.8922 34.6958 33.7645 34.938 33.6396C34.4837 33.1242 33.9243 32.6987 33.2925 32.3877C32.6607 32.0767 31.9692 31.8865 31.2581 31.8281L31.2305 39.6396C31.2243 42.7845 31.9819 45.8895 33.4461 48.72H35.0546L33.4262 38.9219H32.6595C32.5533 38.9179 32.4525 38.8773 32.3764 38.8078C32.3002 38.7384 32.2542 38.6451 32.2471 38.5458L31.8944 34.4535C31.8854 34.3477 31.9213 34.2428 31.9941 34.1614C32.067 34.0801 32.171 34.0288 32.2839 34.0186Z" fill="#63811E"/>
<path id="Vector_19" d="M8.44868 39.6665V31.832C7.10558 31.9397 5.85429 32.5145 4.94152 33.4432C4.02874 34.3718 3.52071 35.5868 3.51758 36.8488V48.7182H6.2254C7.6869 45.8967 8.447 42.8021 8.44868 39.6665Z" fill="#63811E"/>
<path id="Vector_20" d="M15.8837 37.2717C16.2823 35.809 17.1548 34.8315 18.5624 34.2874C16.7377 33.3803 15.5157 31.9492 14.7904 29.875L13.3875 31.5128C13.3583 33.5755 14.1771 35.4659 15.8837 37.2717Z" fill="#63811E"/>
<path id="Vector_21" d="M48.5004 34.8262H32.7871L33.0708 38.1104H48.2183L48.5004 34.8262Z" fill="#63811E"/>
<path id="Vector_22" d="M12.1146 40.5794H19.3472V34.8823C17.679 35.3675 16.8388 36.378 16.575 38.1838C16.5628 38.2578 16.5291 38.3272 16.4775 38.3845C16.4259 38.4417 16.3585 38.4846 16.2826 38.5083C16.2067 38.532 16.1253 38.5357 16.0474 38.519C15.9694 38.5022 15.8978 38.4657 15.8406 38.4134C13.6648 36.3594 12.5777 34.1948 12.5256 31.8105H11.417L12.1146 40.5794Z" fill="#63811E"/>
<path id="Vector_23" d="M46.9788 38.9199H34.3076L35.936 48.718H45.3505L46.9788 38.9199Z" fill="#63811E"/>
</g>
</svg>
