<svg width="50" height="48" viewBox="0 0 50 48" fill="none" xmlns="http://www.w3.org/2000/svg">
<g id="Icon">
<path id="Vector" d="M18.0193 20.8556C17.4816 20.3792 16.775 20.249 16.2275 20.4751C17.0972 21.1113 17.9065 21.8297 18.645 22.621C18.7846 22.0301 18.557 21.332 18.0193 20.8556Z" fill="#63811E"/>
<path id="Vector_2" d="M14.4224 19.2926C14.4765 19.3408 14.5355 19.383 14.5983 19.4185C14.9046 19.593 15.2035 19.7766 15.4949 19.9692C16.351 19.3441 17.6218 19.4399 18.5296 20.2439C19.4373 21.0479 19.7111 22.3226 19.2279 23.2797C19.4555 23.5486 19.6762 23.8261 19.8884 24.1094C20.0588 24.3374 20.3107 24.4867 20.5885 24.5245C20.8664 24.5623 21.1475 24.4856 21.3702 24.3111C21.4273 24.2662 21.4797 24.2154 21.5266 24.1595C22.095 23.4871 22.2737 22.5257 22.0279 21.4542C21.771 20.3355 21.0895 19.2396 20.1091 18.3698C18.9779 17.3684 17.6498 16.8477 16.492 16.8477C15.6136 16.8477 14.8329 17.1481 14.312 17.7647C14.2211 17.8723 14.1518 17.9973 14.1082 18.1324C14.0645 18.2675 14.0473 18.4101 14.0576 18.5521C14.0678 18.694 14.1053 18.8325 14.1679 18.9596C14.2305 19.0866 14.317 19.1998 14.4224 19.2926Z" fill="#63811E"/>
<path id="Vector_3" d="M20.3562 27.8137C21.0475 27.6421 21.5614 27.127 21.6997 26.5391C20.6904 26.8964 19.6505 27.1556 18.5938 27.313C18.9792 27.7708 19.6663 27.9869 20.3562 27.8137Z" fill="#63811E"/>
<path id="Vector_4" d="M11.1908 24.8924C11.8025 24.5204 12.1474 23.8752 12.1111 23.2715C11.2477 23.9155 10.327 24.475 9.36133 24.9424C9.86129 25.2686 10.5791 25.2686 11.1908 24.8924Z" fill="#63811E"/>
<path id="Vector_5" d="M14.3904 21.75C14.1042 21.7478 13.8258 21.8458 13.6013 22.0276C13.3444 22.2679 13.0804 22.4997 12.8095 22.7229C13.1181 23.7529 12.6252 24.9574 11.5931 25.5841C11.1707 25.842 10.6883 25.9789 10.1966 25.9803C9.89231 25.9854 9.59013 25.9283 9.30766 25.8123C9.0252 25.6964 8.76812 25.524 8.55144 25.3051C8.23116 25.4405 7.9053 25.5669 7.57386 25.6842C7.3089 25.7778 7.09107 25.9753 6.96824 26.2334C6.84542 26.4915 6.82767 26.789 6.91888 27.0604C6.94285 27.1291 6.97325 27.1952 7.00966 27.2578C7.94953 28.8844 10.5569 29.0876 12.8193 27.7142C13.9365 27.0361 14.794 26.0819 15.2409 25.0276C15.6682 24.0176 15.6598 23.039 15.2157 22.2737C15.1207 22.133 14.9983 22.0138 14.8563 21.9237C14.7143 21.8336 14.5557 21.7745 14.3904 21.75Z" fill="#63811E"/>
<path id="Vector_6" d="M20.5435 28.5944C20.3278 28.6487 20.1065 28.676 19.8844 28.676C18.9571 28.676 18.1122 28.1939 17.7211 27.4185C17.3748 27.4528 17.0229 27.4771 16.6793 27.4886C16.3991 27.4987 16.1343 27.6223 15.9431 27.8324C15.7519 28.0424 15.65 28.3217 15.6598 28.6088C15.6626 28.6821 15.6725 28.7549 15.6892 28.8262C16.1249 30.6631 18.5591 31.6388 21.1147 31.0022C23.6704 30.3655 25.3951 28.3527 24.9594 26.5172C24.9214 26.3617 24.8502 26.2168 24.7509 26.093C24.6516 25.9691 24.5267 25.8694 24.3852 25.8009C24.2438 25.7325 24.0892 25.6971 23.9327 25.6973C23.7763 25.6974 23.6218 25.7332 23.4805 25.8019C23.1648 25.955 22.8464 26.0966 22.5238 26.2311C22.5224 27.2997 21.7097 28.304 20.5435 28.5944Z" fill="#63811E"/>
<path id="Vector_7" d="M3.89744 9.84573H3.65723V37.957C3.65668 38.2249 3.70764 38.4903 3.80722 38.7381C3.90679 38.9858 4.05302 39.211 4.23755 39.4008C4.42209 39.5907 4.64132 39.7414 4.88273 39.8444C5.12413 39.9475 5.38298 40.0008 5.64451 40.0014H26.2477C26.7749 40.001 27.2804 39.7862 27.653 39.4042C28.0257 39.0222 28.235 38.5042 28.235 37.9642V9.85289H27.4683C27.4147 9.85617 27.361 9.84818 27.3105 9.82942C27.2601 9.81067 27.2139 9.78153 27.1748 9.74382C27.1357 9.7061 27.1046 9.6606 27.0833 9.6101C27.062 9.55961 27.051 9.50517 27.051 9.45017C27.051 9.39517 27.062 9.34075 27.0833 9.29026C27.1046 9.23976 27.1357 9.19426 27.1748 9.15654C27.2139 9.11883 27.2601 9.08969 27.3105 9.07094C27.361 9.05218 27.4147 9.04419 27.4683 9.04747H28.235V6.913C28.2346 6.50107 28.0747 6.10612 27.7904 5.81484C27.506 5.52356 27.1205 5.35975 26.7183 5.35938H5.17387C4.77186 5.36013 4.38653 5.52406 4.10226 5.81526C3.81799 6.10646 3.65797 6.50119 3.65723 6.913V9.04747H3.89744C3.95103 9.04419 4.00471 9.05218 4.05519 9.07094C4.10566 9.08969 4.15186 9.11883 4.19094 9.15654C4.23002 9.19426 4.26116 9.23976 4.28244 9.29026C4.30372 9.34075 4.3147 9.39517 4.3147 9.45017C4.3147 9.50517 4.30372 9.55961 4.28244 9.6101C4.26116 9.6606 4.23002 9.7061 4.19094 9.74382C4.15186 9.78153 4.10566 9.81067 4.05519 9.82942C4.00471 9.84818 3.95103 9.85617 3.89744 9.85289V9.84573ZM13.2263 28.4135C12.1902 29.0588 11.0047 29.409 9.79224 29.4278C8.30632 29.4278 6.99916 28.8284 6.33859 27.6768C6.21503 27.4634 6.13371 27.2273 6.09927 26.9817C6.06482 26.7362 6.07794 26.4862 6.13785 26.2458C6.19777 26.0055 6.30331 25.7796 6.44846 25.5811C6.59361 25.3826 6.77552 25.2153 6.98379 25.0888C7.09185 25.0234 7.206 24.9692 7.32455 24.9271C9.45375 24.18 11.41 22.9918 13.0713 21.4365C13.2496 21.2683 13.4584 21.1377 13.6859 21.0522C13.9134 20.9667 14.1551 20.928 14.3973 20.9382C14.6394 20.9484 14.8772 21.0074 15.0971 21.1118C15.3169 21.2162 15.5146 21.364 15.6787 21.5466C15.7627 21.642 15.8375 21.7455 15.9021 21.8556C16.4775 22.857 16.5026 24.0888 15.9719 25.342C15.458 26.5537 14.4832 27.6438 13.2263 28.4135ZM24.3079 9.04747H26.0131C26.1133 9.05359 26.2074 9.09868 26.2763 9.17353C26.3451 9.24838 26.3835 9.34733 26.3835 9.45017C26.3835 9.55301 26.3451 9.65197 26.2763 9.72683C26.2074 9.80168 26.1133 9.84677 26.0131 9.85289H24.3093C24.2091 9.84677 24.1149 9.80168 24.0461 9.72683C23.9773 9.65197 23.9389 9.55301 23.9389 9.45017C23.9389 9.34733 23.9773 9.24838 24.0461 9.17353C24.1149 9.09868 24.2091 9.05359 24.3093 9.04747H24.3079ZM25.5941 25.9629C25.6484 26.0792 25.6905 26.2009 25.7198 26.3262C26.2589 28.5937 24.2744 31.0472 21.297 31.7854C20.733 31.9275 20.1544 31.9996 19.5736 32C17.2861 32 15.3533 30.8398 14.9203 29.0172C14.8559 28.744 14.8516 28.4594 14.908 28.1843C14.9644 27.9092 15.0799 27.6505 15.2461 27.4268C15.4124 27.2032 15.6252 27.0204 15.8692 26.8916C16.1131 26.7628 16.382 26.6914 16.6562 26.6825C18.9054 26.6058 21.115 26.0555 23.1474 25.0659C23.5882 24.8541 24.0929 24.8296 24.5513 24.9976C25.0097 25.1657 25.3846 25.5127 25.5941 25.9629ZM21.1461 9.04031H22.8499C22.9501 9.04643 23.0443 9.09152 23.1131 9.16637C23.182 9.24122 23.2203 9.34019 23.2203 9.44303C23.2203 9.54587 23.182 9.64481 23.1131 9.71967C23.0443 9.79452 22.9501 9.83961 22.8499 9.84573H21.1461C21.0459 9.83961 20.9518 9.79452 20.8829 9.71967C20.8141 9.64481 20.7758 9.54587 20.7758 9.44303C20.7758 9.34019 20.8141 9.24122 20.8829 9.16637C20.9518 9.09152 21.0459 9.04643 21.1461 9.04031ZM17.9872 9.04031H19.6909C19.7912 9.04643 19.8853 9.09152 19.9541 9.16637C20.023 9.24122 20.0613 9.34019 20.0613 9.44303C20.0613 9.54587 20.023 9.64481 19.9541 9.71967C19.8853 9.79452 19.7912 9.83961 19.6909 9.84573H17.9872C17.9336 9.84901 17.8799 9.84102 17.8294 9.82226C17.7789 9.8035 17.7327 9.77437 17.6937 9.73666C17.6546 9.69894 17.6234 9.65344 17.6021 9.60294C17.5809 9.55244 17.5699 9.49803 17.5699 9.44303C17.5699 9.38803 17.5809 9.33361 17.6021 9.28312C17.6234 9.23262 17.6546 9.18712 17.6937 9.1494C17.7327 9.11168 17.7789 9.08253 17.8294 9.06378C17.8799 9.04502 17.9336 9.03703 17.9872 9.04031ZM14.8282 9.04031H16.532C16.6322 9.04643 16.7263 9.09152 16.7952 9.16637C16.864 9.24122 16.9023 9.34019 16.9023 9.44303C16.9023 9.54587 16.864 9.64481 16.7952 9.71967C16.7263 9.79452 16.6322 9.83961 16.532 9.84573H14.8282C14.7746 9.84901 14.7209 9.84102 14.6704 9.82226C14.6199 9.8035 14.5737 9.77437 14.5347 9.73666C14.4956 9.69894 14.4645 9.65344 14.4432 9.60294C14.4219 9.55244 14.4109 9.49803 14.4109 9.44303C14.4109 9.38803 14.4219 9.33361 14.4432 9.28312C14.4645 9.23262 14.4956 9.18712 14.5347 9.1494C14.5737 9.11168 14.6199 9.08253 14.6704 9.06378C14.7209 9.04502 14.7746 9.03703 14.8282 9.04031ZM20.628 17.767C21.7341 18.7469 22.505 19.993 22.7982 21.2762C23.1041 22.6067 22.8653 23.8198 22.1265 24.6939C21.9681 24.8814 21.7751 25.0351 21.5587 25.1462C21.3422 25.2573 21.1066 25.3237 20.8651 25.3415C20.6236 25.3593 20.3811 25.3282 20.1514 25.25C19.9216 25.1718 19.7092 25.048 19.5261 24.8856C19.4313 24.802 19.3452 24.7085 19.2692 24.6067C17.9031 22.7744 16.1831 21.2502 14.2165 20.1289C13.9773 19.9921 13.771 19.8024 13.6123 19.5737C13.4537 19.345 13.3469 19.0829 13.2995 18.8065C13.2522 18.5302 13.2655 18.2465 13.3386 17.9761C13.4117 17.7057 13.5427 17.4554 13.7221 17.2434C15.2164 15.4708 18.3139 15.7055 20.6308 17.7598L20.628 17.767ZM11.6692 9.04031H13.3744C13.428 9.03703 13.4817 9.04502 13.5321 9.06378C13.5826 9.08253 13.6288 9.11168 13.6679 9.1494C13.707 9.18712 13.7381 9.23262 13.7594 9.28312C13.7807 9.33361 13.7916 9.38803 13.7916 9.44303C13.7916 9.49803 13.7807 9.55244 13.7594 9.60294C13.7381 9.65344 13.707 9.69894 13.6679 9.73666C13.6288 9.77437 13.5826 9.8035 13.5321 9.82226C13.4817 9.84102 13.428 9.84901 13.3744 9.84573H11.672C11.6184 9.84901 11.5647 9.84102 11.5142 9.82226C11.4638 9.8035 11.4176 9.77437 11.3785 9.73666C11.3394 9.69894 11.3083 9.65344 11.287 9.60294C11.2657 9.55244 11.2547 9.49803 11.2547 9.44303C11.2547 9.38803 11.2657 9.33361 11.287 9.28312C11.3083 9.23262 11.3394 9.18712 11.3785 9.1494C11.4176 9.11168 11.4638 9.08253 11.5142 9.06378C11.5647 9.04502 11.6184 9.03703 11.672 9.04031H11.6692ZM8.51022 9.04031H10.2126C10.2662 9.03703 10.3199 9.04502 10.3704 9.06378C10.4208 9.08253 10.467 9.11168 10.5061 9.1494C10.5452 9.18712 10.5763 9.23262 10.5976 9.28312C10.6189 9.33361 10.6299 9.38803 10.6299 9.44303C10.6299 9.49803 10.6189 9.55244 10.5976 9.60294C10.5763 9.65344 10.5452 9.69894 10.5061 9.73666C10.467 9.77437 10.4208 9.8035 10.3704 9.82226C10.3199 9.84102 10.2662 9.84901 10.2126 9.84573H8.51301C8.45941 9.84901 8.40573 9.84102 8.35525 9.82226C8.30478 9.8035 8.25858 9.77437 8.2195 9.73666C8.18042 9.69894 8.14929 9.65344 8.128 9.60294C8.10672 9.55244 8.09574 9.49803 8.09574 9.44303C8.09574 9.38803 8.10672 9.33361 8.128 9.28312C8.14929 9.23262 8.18042 9.18712 8.2195 9.1494C8.25858 9.11168 8.30478 9.08253 8.35525 9.06378C8.40573 9.04502 8.45941 9.03703 8.51301 9.04031H8.51022ZM5.35123 9.04031H7.05362C7.10722 9.03703 7.1609 9.04502 7.21137 9.06378C7.26185 9.08253 7.30805 9.11168 7.34712 9.1494C7.3862 9.18712 7.41734 9.23262 7.43862 9.28312C7.45991 9.33361 7.47089 9.38803 7.47089 9.44303C7.47089 9.49803 7.45991 9.55244 7.43862 9.60294C7.41734 9.65344 7.3862 9.69894 7.34712 9.73666C7.30805 9.77437 7.26185 9.8035 7.21137 9.82226C7.1609 9.84102 7.10722 9.84901 7.05362 9.84573H5.35403C5.30043 9.84901 5.24675 9.84102 5.19627 9.82226C5.1458 9.8035 5.0996 9.77437 5.06052 9.73666C5.02144 9.69894 4.99031 9.65344 4.96903 9.60294C4.94774 9.55244 4.93676 9.49803 4.93676 9.44303C4.93676 9.38803 4.94774 9.33361 4.96903 9.28312C4.99031 9.23262 5.02144 9.18712 5.06052 9.1494C5.0996 9.11168 5.1458 9.08253 5.19627 9.06378C5.24675 9.04502 5.30043 9.03703 5.35403 9.04031H5.35123Z" fill="#63811E"/>
<path id="Vector_8" d="M1.36523 23.0625C1.26078 23.0625 1.16061 23.105 1.08675 23.1807C1.01289 23.2563 0.971401 23.3589 0.971401 23.4659V24.6691C0.968206 24.724 0.976002 24.779 0.994314 24.8307C1.01263 24.8824 1.04107 24.9297 1.07789 24.9697C1.1147 25.0097 1.15913 25.0417 1.20842 25.0635C1.25771 25.0853 1.31084 25.0965 1.36453 25.0965C1.41822 25.0965 1.47134 25.0853 1.52064 25.0635C1.56993 25.0417 1.61435 25.0097 1.65117 24.9697C1.68799 24.9297 1.71643 24.8824 1.73474 24.8307C1.75306 24.779 1.76085 24.724 1.75766 24.6691V23.4659C1.75784 23.413 1.74782 23.3606 1.72818 23.3116C1.70855 23.2627 1.67967 23.2182 1.64321 23.1807C1.60675 23.1432 1.56343 23.1135 1.51572 23.0932C1.46802 23.0729 1.41688 23.0625 1.36523 23.0625Z" fill="#63811E"/>
<path id="Vector_9" d="M1.36523 26.2676C1.31358 26.2674 1.26239 26.2776 1.21462 26.2978C1.16685 26.3179 1.12342 26.3475 1.08684 26.3848C1.05025 26.4222 1.02121 26.4666 1.00141 26.5154C0.981597 26.5643 0.971401 26.6167 0.971401 26.6696V35.4048C0.968206 35.4597 0.976002 35.5147 0.994314 35.5664C1.01263 35.6181 1.04107 35.6655 1.07789 35.7055C1.1147 35.7455 1.15913 35.7774 1.20842 35.7992C1.25771 35.821 1.31084 35.8323 1.36453 35.8323C1.41822 35.8323 1.47134 35.821 1.52064 35.7992C1.56993 35.7774 1.61435 35.7455 1.65117 35.7055C1.68799 35.6655 1.71643 35.6181 1.73474 35.5664C1.75306 35.5147 1.76085 35.4597 1.75766 35.4048V26.6696C1.75766 26.563 1.71631 26.4607 1.64272 26.3853C1.56912 26.3099 1.46931 26.2676 1.36523 26.2676Z" fill="#63811E"/>
<path id="Vector_10" d="M47.8332 39.2012L47.6433 39.1154C47.2921 38.9055 46.8928 38.7949 46.4863 38.7949C46.0797 38.7949 45.6804 38.9055 45.3292 39.1154L45.1393 39.2012C44.6058 39.4258 43.9941 39.7649 43.9941 40.3972C43.9941 40.5042 44.0356 40.6068 44.1095 40.6825C44.1834 40.7582 44.2835 40.8007 44.388 40.8007H48.5776C48.682 40.8007 48.7822 40.7582 48.8561 40.6825C48.9299 40.6068 48.9714 40.5042 48.9714 40.3972C48.9784 39.7649 48.3667 39.4301 47.8332 39.2012Z" fill="#63811E"/>
<path id="Vector_11" d="M39.7233 15.6552C40.1582 14.3281 40.1056 12.884 39.5753 11.5938C38.8307 12.0408 38.1962 12.657 37.7207 13.3949C37.8536 13.7095 37.9637 14.0337 38.0503 14.3648C38.3926 15.6669 38.3518 17.0435 37.933 18.3218C38.7657 17.626 39.3869 16.7008 39.7233 15.6552Z" fill="#63811E"/>
<path id="Vector_12" d="M37.5043 26.0719C39.1475 26.07 40.7229 25.4005 41.8848 24.2102C43.0467 23.0199 43.7003 21.4062 43.7021 19.7229V19.6399H43.6211C41.9778 19.6418 40.4023 20.3113 39.2401 21.5015C38.078 22.6917 37.4241 24.3055 37.4219 25.9889V17.072C37.5929 15.9317 37.4438 14.7651 36.992 13.7083C36.5403 12.6515 35.8044 11.7481 34.8704 11.1035C34.2613 12.3752 34.1043 13.8248 34.4266 15.2023C34.7488 16.5799 35.53 17.7991 36.6356 18.6499V23.0047C36.6338 21.5719 36.0773 20.1985 35.0882 19.1855C34.0991 18.1725 32.7581 17.6028 31.3595 17.6013H31.3441V17.6156C31.3478 19.0485 31.9061 20.4214 32.8965 21.4332C33.8868 22.4451 35.2285 23.0133 36.6273 23.0133H36.6426V29.5339C36.6408 27.8504 35.987 26.2364 34.8248 25.0461C33.6625 23.8558 32.0868 23.1864 30.4434 23.1849H30.3624V23.2679C30.3642 24.9512 31.0178 26.565 32.1797 27.7552C33.3416 28.9455 34.917 29.615 36.5602 29.6169H36.6426V37.6927C34.5478 37.8357 33.4697 38.2277 32.0829 38.7313C31.5243 38.933 30.9475 39.1433 30.2255 39.365C30.0637 39.4176 29.9254 39.5274 29.8354 39.6748C29.7454 39.8223 29.7095 39.9977 29.7342 40.1698C29.7589 40.3418 29.8425 40.4993 29.9701 40.6139C30.0978 40.7286 30.2611 40.793 30.4308 40.7956H42.2749C42.4516 40.7956 42.6235 40.737 42.7651 40.6287C42.9067 40.5204 43.0103 40.3682 43.0606 40.1946C43.1108 40.0211 43.105 39.8356 43.0439 39.6657C42.9829 39.4958 42.8699 39.3507 42.7218 39.252C42.4746 39.0889 42.2637 38.9315 42.0584 38.7799C41.1912 38.1376 40.5055 37.6354 38.5517 37.6354C38.1481 37.6354 37.7766 37.6426 37.4345 37.654V33.1634H37.5168C39.1601 33.1615 40.7354 32.492 41.8974 31.3017C43.0593 30.1114 43.7129 28.4977 43.7147 26.8144V26.73H43.6337C41.9902 26.7322 40.4147 27.402 39.2526 28.5925C38.0905 29.7829 37.4367 31.3969 37.4345 33.0804V26.0705L37.5043 26.0719Z" fill="#63811E"/>
</g>
</svg>
