<svg width="49" height="48" viewBox="0 0 49 48" fill="none" xmlns="http://www.w3.org/2000/svg">
<g id="Icon">
<path id="Vector" d="M17.943 22.2671C15.3251 22.6804 14.761 23.6268 13.8932 25.0587C13.7197 25.3476 13.5273 25.6626 13.3147 25.9935C14.0299 26.6684 14.8713 27.1958 15.7906 27.5458C16.7099 27.8958 17.6892 28.0614 18.6727 28.0332C19.6561 28.0051 20.6243 27.7836 21.522 27.3816C22.4198 26.9795 23.2294 26.4048 23.9048 25.6901C24.0813 25.5068 24.2474 25.3139 24.4023 25.1121C23.7654 24.6836 23.162 24.2074 22.5973 23.6875C21.3462 22.585 20.5261 21.8596 17.943 22.2671Z" fill="#63811E"/>
<path id="Vector_2" d="M22.3269 14.1559C21.3333 13.5545 20.2132 13.1924 19.0553 13.0983C18.8485 13.0809 18.6402 13.0723 18.4334 13.0723C17.0065 13.0752 15.6102 13.4851 14.4087 14.2539C13.2072 15.0227 12.2504 16.1183 11.651 17.4118C11.0516 18.7053 10.8345 20.143 11.0252 21.5556C11.2159 22.9682 11.8065 24.297 12.7275 25.3857C12.8924 25.13 13.0443 24.88 13.1904 24.6387C14.103 23.1288 14.8247 21.9367 17.8187 21.4599C20.7808 20.9918 21.8178 21.9078 23.1296 23.0681C23.6695 23.5652 24.2463 24.0206 24.8551 24.4306C25.8833 22.7331 26.1946 20.6971 25.7205 18.7703C25.2464 16.8436 24.0257 15.1838 22.3269 14.1559Z" fill="#63811E"/>
<path id="Vector_3" d="M28.5968 13.3389L27.3066 11.8203L25.8936 13.0196C26.1124 13.2354 26.3236 13.4622 26.5271 13.7001C26.7571 13.9708 26.9734 14.2529 27.175 14.5454L28.5968 13.3389Z" fill="#63811E"/>
<path id="Vector_4" d="M41.8743 1.00074C41.6812 0.739965 41.4386 0.519758 41.1602 0.352691C40.8819 0.185625 40.5734 0.0749797 40.2522 0.0270771C39.9311 -0.0208256 39.6036 -0.00505871 39.2886 0.0735001C38.9735 0.152059 38.6771 0.29187 38.4161 0.484923C38.3277 0.550634 38.2436 0.622066 38.1645 0.698766L27.625 10.9373L29.5371 13.1856L41.3566 4.45551C41.8837 4.06586 42.2343 3.48305 42.3314 2.83522C42.4285 2.18738 42.2641 1.52753 41.8743 1.00074Z" fill="#63811E"/>
<path id="Vector_5" d="M19.2401 10.8116C17.311 10.6545 15.3786 11.0725 13.6873 12.0125C11.996 12.9526 10.6216 14.3727 9.73817 16.093C8.85469 17.8134 8.5017 19.7569 8.72387 21.6777C8.94603 23.5985 9.73336 25.4103 10.9863 26.884C12.2392 28.3578 13.9015 29.4273 15.7628 29.9573C17.6242 30.4873 19.6011 30.4539 21.4435 29.8615C23.2859 29.2691 24.9111 28.1441 26.1135 26.629C27.3159 25.1138 28.0416 23.2765 28.1987 21.3493C28.4091 18.7652 27.5835 16.2034 25.9035 14.2273C24.2235 12.2513 21.8267 11.0226 19.2401 10.8116ZM23.812 26.8789C22.1356 28.2515 19.9884 28.9147 17.8291 28.7269C15.6698 28.539 13.6696 27.5149 12.256 25.8735C10.8424 24.232 10.1274 22.1034 10.2639 19.9424C10.4003 17.7813 11.3773 15.7593 12.9861 14.3083L13.07 14.2375C14.7522 12.8422 16.9175 12.1661 19.0957 12.3562C21.2738 12.5462 23.289 13.587 24.7036 15.2525C26.1182 16.918 26.818 19.0738 26.6511 21.2517C26.4842 23.4296 25.4639 25.4537 23.812 26.8847V26.8789Z" fill="#63811E"/>
<path id="Vector_6" d="M33.4046 30.1915L25.6985 34.2242C24.691 34.7502 23.5979 35.0926 22.4702 35.2356L15.791 36.0896C15.2383 36.1605 14.7364 36.4479 14.3957 36.8885C14.0551 37.3291 13.9035 37.8868 13.9744 38.439C13.9744 38.4722 13.9831 38.504 13.9889 38.5372C14.0782 39.0401 14.3476 39.4932 14.7468 39.8123C15.146 40.1313 15.6477 40.2944 16.1584 40.2711L24.8755 39.8752C25.7646 39.8353 26.6425 39.6604 27.4789 39.3565L32.3212 37.598C32.372 37.5748 32.427 37.5622 32.4829 37.561C32.5387 37.5598 32.5942 37.5702 32.6459 37.5913C32.6976 37.6125 32.7444 37.644 32.7834 37.6839C32.8224 37.7239 32.8527 37.7714 32.8726 37.8236C32.8924 37.8757 32.9013 37.9314 32.8988 37.9871C32.8962 38.0429 32.8822 38.0975 32.8576 38.1476C32.833 38.1977 32.7985 38.2423 32.7559 38.2785C32.7134 38.3147 32.6639 38.3418 32.6105 38.3581H32.5975L27.7566 40.1179C26.8434 40.4495 25.8851 40.6404 24.9145 40.6843L16.1975 41.0803C15.7904 41.0975 15.3842 41.0296 15.0049 40.881C14.6256 40.7323 14.2815 40.5061 13.9948 40.217C13.708 39.9278 13.4849 39.5819 13.3397 39.2016C13.1945 38.8213 13.1304 38.4149 13.1515 38.0084L3.33516 34.2199C2.8285 34.029 2.26757 34.0415 1.7699 34.2546C1.27224 34.4678 0.876467 34.8651 0.66554 35.3633C0.454613 35.8615 0.444901 36.422 0.63843 36.9272C0.831959 37.4324 1.21371 37.8432 1.70368 38.0734L22.6178 47.6993C23.0308 47.8886 23.4784 47.991 23.9327 48.0002C24.387 48.0094 24.8384 47.9252 25.2588 47.7528L35.3108 43.6045C36.2581 43.2156 37.3074 43.1495 38.2961 43.4167L45.7433 45.4395L48.5 34.2935L38.3568 29.9805C37.5677 29.6453 36.7136 29.4902 35.8568 29.5267C35.0001 29.5632 34.1623 29.7903 33.4046 30.1915Z" fill="#63811E"/>
<path id="Vector_7" d="M13.3059 37.2048C13.4026 36.935 13.5385 36.6808 13.7094 36.4506C13.9428 36.1336 14.2386 35.8675 14.5786 35.6688C14.9185 35.47 15.2956 35.3427 15.6866 35.2947L22.3657 34.4393C23.3982 34.3075 24.3988 33.9929 25.3206 33.5102L33.0253 29.4789C33.1323 29.4226 33.2408 29.3691 33.3493 29.32L27.1994 26.5371C26.2276 27.957 24.9244 29.1193 23.4024 29.9236C21.8804 30.7279 20.1853 31.15 18.4635 31.1536C18.1743 31.1536 17.8811 31.1415 17.5842 31.1174C15.2247 30.9323 12.9968 29.9574 11.2608 28.3505L4.96484 33.9928L13.3059 37.2048Z" fill="#63811E"/>
<path id="Vector_8" d="M5.41859 42.1433L4.46111 41.7026C4.41225 41.6784 4.35903 41.6642 4.30459 41.6609C4.25016 41.6576 4.19561 41.6653 4.14418 41.6834C4.09276 41.7015 4.0455 41.7298 4.00519 41.7665C3.96489 41.8032 3.93235 41.8476 3.90953 41.8971C3.8867 41.9466 3.87403 42.0001 3.87228 42.0545C3.87053 42.109 3.87973 42.1633 3.89933 42.2141C3.91893 42.2649 3.94854 42.3113 3.98641 42.3505C4.02427 42.3898 4.06962 42.421 4.11978 42.4424L5.07725 42.8758C5.17489 42.9175 5.28494 42.9195 5.38402 42.8813C5.48309 42.8432 5.56338 42.768 5.60783 42.6717C5.65227 42.5753 5.65736 42.4655 5.62202 42.3655C5.58669 42.2654 5.51371 42.1831 5.41859 42.136V42.1433Z" fill="#63811E"/>
<path id="Vector_9" d="M15.1627 46.6292L7.22088 42.978C7.17202 42.9538 7.1188 42.9396 7.06437 42.9363C7.00993 42.933 6.95539 42.9406 6.90396 42.9588C6.85253 42.9769 6.80526 43.0052 6.76496 43.0419C6.72465 43.0786 6.69212 43.123 6.66929 43.1724C6.64646 43.2219 6.6338 43.2755 6.63205 43.3299C6.63029 43.3844 6.63949 43.4386 6.65909 43.4895C6.6787 43.5403 6.70831 43.5867 6.74617 43.6259C6.78404 43.6651 6.82939 43.6964 6.87955 43.7178L14.8228 47.3719C14.9208 47.4169 15.0328 47.4212 15.1339 47.3838C15.2351 47.3464 15.3173 47.2704 15.3623 47.1725C15.4074 47.0746 15.4117 46.9628 15.3743 46.8617C15.3368 46.7607 15.2607 46.6786 15.1627 46.6336V46.6292Z" fill="#63811E"/>
</g>
</svg>
