<svg width="49" height="49" viewBox="0 0 49 49" fill="none" xmlns="http://www.w3.org/2000/svg">
<g id="Icon">
<path id="Vector" d="M25.9579 14.3637C26.104 14.8729 26.411 15.3241 26.8351 15.6527C27.2592 15.9814 27.7788 16.1707 28.3196 16.1938C28.8604 16.2168 29.3949 16.0724 29.8467 15.7811C30.2985 15.4897 30.6445 15.0664 30.8354 14.5716C31.2677 14.472 31.6421 14.2094 31.8767 13.841C32.1113 13.4726 32.1871 13.0285 32.0875 12.6057C32.0569 12.4789 32.0116 12.3559 31.9524 12.2392C32.2174 11.7785 32.3267 11.2478 32.2645 10.7229C32.2024 10.1979 31.972 9.7056 31.6062 9.31624C31.2405 8.92687 30.7581 8.66039 30.228 8.55486C29.6979 8.44933 29.1473 8.51015 28.6547 8.72863C27.7943 8.72615 26.9579 9.00629 26.2801 9.52404C25.6022 10.0418 25.1222 10.7671 24.9172 11.5834C24.9474 11.7105 24.9932 11.8336 25.0538 11.9499C24.8714 12.2363 24.7846 12.5709 24.8051 12.9076C23.1274 13.1787 21.5787 13.956 20.3761 15.1304C20.3087 14.7405 20.264 14.3472 20.2424 13.9523V13.9312C20.1403 12.015 20.58 10.1082 21.5132 8.41971C22.7633 8.23562 23.9898 7.92163 25.1716 7.4831C25.2439 7.34999 25.2985 7.20843 25.3341 7.06184C25.7857 6.92907 26.1648 6.62651 26.388 6.2207C26.6112 5.81489 26.6602 5.33909 26.5243 4.89795C26.48 4.75478 26.4167 4.61789 26.336 4.49074C26.5601 4.08553 26.6102 3.60997 26.4754 3.16864C26.3407 2.72732 26.032 2.35634 25.6173 2.13728C25.4813 2.06565 25.3363 2.01182 25.186 1.9772C24.494 1.39501 23.6242 1.05286 22.7123 1.00409C21.8004 0.955324 20.8976 1.20268 20.1447 1.70759C20.0713 1.84021 20.0167 1.98192 19.9823 2.12886C19.5307 2.26163 19.1516 2.5642 18.9283 2.97C18.7051 3.37581 18.6561 3.85161 18.792 4.29274C18.8367 4.43598 18.8995 4.57325 18.9789 4.70137C19.3474 5.9372 19.9565 7.09196 20.7729 8.10236C20.0191 9.48477 19.5692 11.0057 19.4518 12.5678C18.4029 11.1709 16.9103 10.1524 15.2068 9.67087C15.1556 9.65676 15.102 9.65266 15.0491 9.65879C14.9963 9.66491 14.9451 9.68115 14.8987 9.70658C14.8522 9.732 14.8114 9.76612 14.7784 9.80697C14.7454 9.84783 14.721 9.89462 14.7066 9.94468C14.6922 9.99475 14.688 10.0471 14.6942 10.0988C14.7005 10.1504 14.7171 10.2004 14.7432 10.2457C14.7692 10.2911 14.8041 10.331 14.8459 10.3632C14.8878 10.3954 14.9357 10.4192 14.9869 10.4333C15.9466 10.7042 16.8383 11.1668 17.6054 11.7919C18.3725 12.417 18.9983 13.1909 19.4432 14.0646C19.5083 15.1187 19.7246 16.1586 20.0857 17.1539L20.8476 19.2602C20.8872 19.3542 20.9622 19.4297 21.0572 19.4711C21.1521 19.5126 21.2598 19.5168 21.3578 19.4829C21.4559 19.449 21.5368 19.3796 21.5839 19.289C21.6311 19.1984 21.6407 19.0936 21.6109 18.9962L20.8491 16.8899C20.7513 16.6175 20.6636 16.3409 20.5889 16.0642C21.7352 14.7666 23.3199 13.9137 25.0552 13.6602C25.2609 13.9921 25.581 14.2415 25.9579 14.3637ZM26.9441 11.3756C27.0875 11.0727 27.3197 10.8183 27.6114 10.6445C27.903 10.4707 28.2409 10.3855 28.5822 10.3995C28.9235 10.4135 29.2528 10.5262 29.5285 10.7233C29.8041 10.9203 30.0137 11.1929 30.1306 11.5065C30.2474 11.82 30.2664 12.1604 30.185 12.4845C30.1036 12.8086 29.9256 13.1017 29.6734 13.3269C29.4213 13.552 29.1064 13.6989 28.7687 13.749C28.4309 13.7991 28.0856 13.7501 27.7764 13.6083C27.3639 13.419 27.0448 13.078 26.8888 12.6596C26.7328 12.2413 26.7527 11.7797 26.9441 11.3756ZM20.9554 3.96135C21.0837 3.63252 21.3088 3.34821 21.6025 3.14438C21.8961 2.94055 22.245 2.82636 22.6051 2.81624C22.9652 2.80612 23.3202 2.90053 23.6254 3.08753C23.9305 3.27453 24.172 3.54573 24.3194 3.86682C24.4668 4.1879 24.5133 4.54447 24.4533 4.89142C24.3932 5.23837 24.2291 5.56013 23.9818 5.816C23.7345 6.07186 23.4151 6.25036 23.064 6.3289C22.7129 6.40744 22.3458 6.38249 22.0091 6.25723C21.558 6.08896 21.1936 5.75268 20.9961 5.32223C20.7985 4.89177 20.7839 4.40232 20.9554 3.96135Z" fill="#63811E"/>
<path id="Vector_2" d="M22.2864 5.51656H22.2979C22.4838 5.58468 22.6862 5.59755 22.8796 5.55353C23.073 5.50952 23.2488 5.41059 23.3847 5.26921C23.5207 5.12783 23.6108 4.95031 23.6437 4.75901C23.6765 4.56771 23.6508 4.37119 23.5695 4.19418C23.4883 4.01717 23.3553 3.8676 23.1872 3.76429C23.0191 3.66098 22.8235 3.60855 22.625 3.61362C22.4265 3.61868 22.234 3.68101 22.0717 3.79274C21.9093 3.90448 21.7845 4.06063 21.7128 4.24154C21.6645 4.36203 21.6411 4.49064 21.6438 4.62C21.6465 4.74937 21.6753 4.87694 21.7286 4.9954C21.7819 5.11386 21.8586 5.22087 21.9543 5.31031C22.05 5.39974 22.1629 5.46983 22.2864 5.51656Z" fill="#63811E"/>
<path id="Vector_3" d="M28.1181 12.8922C28.337 12.9918 28.5874 13.0025 28.8143 12.922C29.0412 12.8414 29.2262 12.6762 29.3285 12.4625C29.3794 12.3575 29.4086 12.2437 29.4144 12.1277C29.4203 12.0117 29.4027 11.8956 29.3627 11.7862C29.3226 11.6768 29.2609 11.5762 29.181 11.4901C29.1012 11.404 29.0048 11.3341 28.8972 11.2844H28.8886C28.6698 11.1848 28.4194 11.1742 28.1925 11.2549C27.9657 11.3356 27.7809 11.501 27.6789 11.7148C27.577 11.9286 27.5661 12.1731 27.6487 12.3947C27.7314 12.6163 27.9007 12.7968 28.1195 12.8964L28.1181 12.8922Z" fill="#63811E"/>
<path id="Vector_4" d="M6.3489 27.0437C6.17927 26.8612 5.99959 26.6814 5.81415 26.5087C4.93009 25.6845 3.95977 25.0427 3.08289 24.7015C2.08958 24.3153 1.29464 24.3575 0.844706 24.8166C-0.135672 25.8178 1.11926 28.0239 2.79827 29.591C2.88883 29.6752 2.9794 29.7567 3.06996 29.8367C4.08961 30.719 5.40653 31.2029 6.76866 31.196C6.94834 31.196 7.12803 31.1861 7.30916 31.1693L8.3614 31.6804L10.8943 40.0228L10.4142 39.8122C10.3221 38.224 9.64985 36.7208 8.51954 35.5757C8.30392 35.3594 8.07678 35.146 7.84103 34.941C5.36565 32.7743 2.75084 31.9556 1.7604 33.0355C1.25008 33.5972 1.28026 34.5169 1.84376 35.6417C2.35264 36.6555 3.24821 37.748 4.36659 38.731C4.47872 38.8292 4.59372 38.9275 4.71016 39.0216C5.92774 40.0097 7.46276 40.5471 9.04566 40.5396C9.35236 40.5396 9.65873 40.5199 9.96279 40.4806L11.199 41.0268L12.0831 43.9406C12.1136 44.0413 12.1838 44.1261 12.2783 44.1763C12.3728 44.2264 12.4838 44.2379 12.587 44.2081C12.6901 44.1783 12.7769 44.1097 12.8282 44.0174C12.8796 43.9251 12.8913 43.8166 12.8608 43.7159L11.9753 40.8022L12.7084 39.6788C13.5596 39.2885 14.3186 38.7297 14.9372 38.0379C15.5559 37.3461 16.0206 36.5364 16.3022 35.6599C16.3467 35.5195 16.3884 35.3791 16.4273 35.2387C17.2898 32.1045 16.8671 29.4561 15.4339 29.077C14.6965 28.8832 13.8642 29.3241 13.0894 30.3225C12.3907 31.2226 11.7956 32.4977 11.3989 33.9131C11.3169 34.2094 11.245 34.5113 11.1847 34.8062C10.8759 36.3682 11.1514 37.9866 11.9609 39.3671L11.6734 39.7996L9.14054 31.4557L9.73711 30.4728C10.4175 30.1301 11.0182 29.6539 11.5015 29.074C11.9849 28.4941 12.3404 27.823 12.546 27.1027C12.5776 26.9876 12.6078 26.8696 12.638 26.7516C12.9169 25.589 12.9916 24.4473 12.8479 23.5346C12.6826 22.5025 12.2441 21.8495 11.6102 21.7091C10.2302 21.3918 8.91916 23.5669 8.38729 25.7813C8.32835 26.0257 8.27804 26.2714 8.24354 26.5143C8.03551 27.7867 8.29631 29.0898 8.97954 30.192L8.83579 30.4363L6.5674 22.9673L6.71115 22.4267C7.17948 22.1763 7.59157 21.8367 7.92296 21.4278C8.25434 21.019 8.49828 20.5492 8.64029 20.0465C8.66329 19.9651 8.68484 19.8837 8.70497 19.7994C9.22535 17.6425 8.69347 16.3282 7.89853 16.1485C7.61103 16.0825 7.03602 16.1007 6.41933 16.9587C5.98524 17.5998 5.67671 18.314 5.5094 19.065C5.46771 19.2377 5.43178 19.4118 5.40303 19.5831C5.35828 19.8509 5.34287 20.1225 5.35703 20.3934C5.21812 20.1587 5.05377 19.9393 4.86684 19.739C4.74753 19.6112 4.62103 19.4835 4.49022 19.3613C2.84859 17.8293 1.42114 17.6116 0.8562 18.1874C0.291261 18.7631 0.580198 20.1533 2.22039 21.6796C2.28364 21.7386 2.34832 21.7962 2.41301 21.8538C3.14403 22.4894 4.08939 22.8394 5.06809 22.8367C5.16441 22.8367 5.26072 22.8367 5.3556 22.8255L5.78685 23.199L8.04516 30.6427L7.78496 30.5163C7.74164 29.2293 7.23284 27.999 6.3489 27.0437Z" fill="#63811E"/>
<path id="Vector_5" d="M32.9726 23.5867C34.9707 22.8158 36.9789 21.5534 36.9588 20.4722C36.9594 20.3258 36.9124 20.183 36.8246 20.0643C36.7367 19.9457 36.6126 19.8574 36.47 19.8122C35.4796 19.4696 33.7704 20.7081 32.3659 22.2134C31.5552 20.336 30.3678 18.613 29.317 18.6116C29.1669 18.6076 29.0195 18.6504 28.896 18.7337C28.7724 18.817 28.6792 18.9365 28.6299 19.075C28.2417 20.0874 29.7037 21.9311 31.3237 23.3101C31.4499 23.4169 31.5926 23.5036 31.7464 23.567C31.6429 24.7456 31.4958 25.9196 31.3051 27.0888C30.5964 25.4908 29.6462 24.1582 28.7377 24.1231C28.587 24.113 28.437 24.1504 28.3097 24.2298C28.1824 24.3091 28.0845 24.4263 28.0304 24.564C27.6279 25.5147 28.8168 27.2405 30.2959 28.684C28.3338 29.3861 26.5153 30.4716 26.4722 31.4924C26.464 31.6394 26.5033 31.7852 26.5845 31.9092C26.6658 32.0331 26.7849 32.129 26.925 32.1833C27.0622 32.2363 27.2087 32.2626 27.3562 32.2605C28.2346 32.2605 29.4809 31.4741 30.6338 30.4477C30.21 32.2361 29.6849 34.0001 29.0611 35.7317C28.6126 34.0242 27.8766 32.5357 26.9739 32.3616C26.8265 32.33 26.6726 32.3451 26.5346 32.4047C26.3965 32.4643 26.2815 32.5653 26.2062 32.693C25.66 33.572 26.5642 35.4551 27.799 37.1036C25.7506 37.5094 23.784 38.3056 23.5814 39.3139C23.5485 39.4578 23.5638 39.6083 23.6248 39.7432C23.6859 39.8782 23.7895 39.9905 23.9206 40.0637C24.704 40.5285 26.2666 39.9233 27.7702 38.9572C27.0076 40.6829 26.1437 42.3642 25.1827 43.9927L24.5661 45.0388C24.5169 45.1294 24.5057 45.2351 24.5346 45.3336C24.5636 45.4321 24.6306 45.5158 24.7214 45.5671C24.8123 45.6184 24.9199 45.6332 25.0218 45.6086C25.1237 45.5839 25.2118 45.5216 25.2676 45.4348L25.8842 44.3887C26.8874 42.6886 27.786 40.9316 28.5752 39.1271C29.0194 40.8894 29.7698 42.4509 30.6956 42.6292C30.7467 42.6387 30.7987 42.6434 30.8508 42.6432C30.9751 42.6439 31.0973 42.6123 31.2049 42.5516C31.3126 42.4909 31.4017 42.4033 31.4632 42.2978C32.0094 41.4188 31.1052 39.5357 29.8704 37.8872C31.9189 37.4814 33.8868 36.6852 34.0895 35.6769C34.1219 35.533 34.1064 35.3827 34.0454 35.2478C33.9844 35.113 33.881 35.0007 33.7503 34.9271C32.9453 34.4497 31.3223 35.1054 29.7827 36.1095C30.4315 34.3189 30.9771 32.4943 31.4172 30.6443C32.1359 32.2844 33.0976 33.6689 34.0248 33.7054H34.0579C34.2031 33.7081 34.3457 33.6671 34.4663 33.588C34.5869 33.5088 34.6797 33.3955 34.7321 33.2631C35.1331 32.3125 33.9443 30.5867 32.4666 29.1432C34.4273 28.4411 36.2472 27.3556 36.2889 26.3347C36.2988 26.1876 36.2603 26.0413 36.1791 25.9171C36.0979 25.7928 35.9782 25.6971 35.8375 25.6439C34.9606 25.2914 33.4426 26.1971 32.0698 27.4342C32.2778 26.1911 32.4373 24.9422 32.5485 23.6878C32.6938 23.6724 32.8364 23.6385 32.9726 23.5867Z" fill="#63811E"/>
<path id="Vector_6" d="M48.0814 24.4303C47.1298 23.9936 45.3042 25.0608 43.7531 26.4229C43.1364 24.4766 42.1316 22.6456 41.0851 22.5445C40.9361 22.5262 40.785 22.5546 40.6535 22.6255C40.5221 22.6964 40.417 22.8061 40.3534 22.939C39.8661 23.9079 41.1326 25.8879 42.606 27.4143C42.7209 27.5322 42.8537 27.6322 42.9999 27.7105C42.7593 28.9715 42.4675 30.2222 42.1244 31.4626C41.512 29.786 40.6265 28.3495 39.7037 28.261C39.5536 28.243 39.4016 28.2722 39.2698 28.3445C39.1379 28.4167 39.0331 28.5282 38.9705 28.6626C38.5134 29.588 39.5973 31.3783 40.9831 32.9033C38.9835 33.4973 37.1018 34.4732 36.9997 35.4969C36.9806 35.6654 37.0245 35.835 37.1234 35.9743C37.0109 35.9744 36.9 36.0007 36.8 36.051C36.7 36.1013 36.6137 36.1742 36.5484 36.2636C35.9159 37.0851 36.6245 39.0467 37.6868 40.8048C35.6068 41.0098 33.5684 41.6122 33.2651 42.5966C33.2178 42.7367 33.2176 42.888 33.2647 43.0283C33.3118 43.1685 33.4036 43.2904 33.5267 43.3759C34.2584 43.9137 35.8756 43.4588 37.4698 42.6471C36.5367 44.2906 35.5072 45.88 34.3863 47.4074L33.6676 48.3903C33.6119 48.4756 33.5917 48.5785 33.6113 48.6779C33.6308 48.7772 33.6885 48.8655 33.7725 48.9246C33.8566 48.9837 33.9606 49.0092 34.0633 48.9957C34.1659 48.9823 34.2594 48.931 34.3245 48.8523L35.0433 47.8694C36.2129 46.2744 37.2847 44.6131 38.2532 42.8943C38.5163 44.6917 39.1057 46.3177 40.0084 46.5831C40.0815 46.6055 40.1576 46.6168 40.2341 46.6168C40.3459 46.6178 40.4563 46.5929 40.5562 46.5441C40.6562 46.4952 40.7429 46.4239 40.8091 46.336C41.4416 45.5131 40.7329 43.5528 39.6706 41.7934C41.7507 41.5884 43.7891 40.9859 44.0924 40.0016C44.1435 39.8604 44.1465 39.7068 44.1009 39.5638C44.0553 39.4208 43.9636 39.2961 43.8394 39.2082C43.0876 38.6564 41.4057 39.1506 39.7712 40.0016C40.5886 38.2994 41.3085 36.5541 41.9275 34.7737C42.5427 36.5149 43.4527 38.0357 44.4029 38.127H44.4848C44.6219 38.1283 44.7565 38.0906 44.8721 38.0186C44.9877 37.9465 45.0794 37.8432 45.136 37.7212C45.5931 36.7958 44.5093 35.0054 43.1235 33.4804C45.1231 32.8865 47.0048 31.9105 47.1068 30.8869C47.1249 30.7405 47.0948 30.5923 47.0209 30.4638C46.947 30.3353 46.8331 30.2331 46.6957 30.1721C45.8548 29.7747 44.3181 30.5639 42.8921 31.6943C43.2399 30.4408 43.5365 29.177 43.7819 27.9029C43.9277 27.9023 44.0727 27.8825 44.2131 27.8439C46.2817 27.2682 48.4078 26.2066 48.4969 25.1296C48.5116 24.9852 48.4794 24.8399 48.4048 24.7144C48.3302 24.5889 48.2171 24.4895 48.0814 24.4303ZM39.0956 39.5621C38.8771 38.1705 38.4617 36.8941 37.855 36.3127C38.696 36.3535 39.9107 35.7019 41.0736 34.8046C40.4981 36.4225 39.8379 38.0104 39.0956 39.5621Z" fill="#63811E"/>
<path id="Vector_7" d="M13.5554 10.8747C12.0387 11.7159 10.6509 12.7616 9.43269 13.9809C9.36905 14.0573 9.33686 14.1542 9.34241 14.2525C9.34796 14.3509 9.39085 14.4437 9.4627 14.5128C9.53455 14.582 9.63021 14.6225 9.73099 14.6264C9.83176 14.6303 9.93042 14.5974 10.0077 14.5341C11.172 13.3675 12.4989 12.3672 13.9493 11.5628C14.0374 11.5085 14.1007 11.423 14.126 11.3243C14.1514 11.2256 14.1368 11.1211 14.0854 11.0326C14.034 10.9441 13.9497 10.8783 13.8499 10.8489C13.7502 10.8195 13.6427 10.8288 13.5497 10.8747H13.5554Z" fill="#63811E"/>
<path id="Vector_8" d="M22.6815 43.9013C20.2145 43.9065 17.7739 43.4046 15.5184 42.4283C15.4214 42.3922 15.3139 42.3938 15.2181 42.4328C15.1223 42.4719 15.0455 42.5453 15.0035 42.638C14.9614 42.7307 14.9574 42.8357 14.9923 42.9312C15.0271 43.0267 15.0981 43.1055 15.1907 43.1514C17.5488 44.1745 20.1012 44.7009 22.6815 44.6961C22.789 44.6961 22.8921 44.6544 22.9682 44.5801C23.0442 44.5058 23.0869 44.4051 23.0869 44.3001C23.0869 44.1951 23.0442 44.0943 22.9682 44.0201C22.8921 43.9458 22.789 43.9041 22.6815 43.9041V43.9013Z" fill="#63811E"/>
<path id="Vector_9" d="M39.9279 21.2052C40.0295 21.1719 40.1135 21.1006 40.1615 21.0069C40.2095 20.9132 40.2174 20.8048 40.1837 20.7053V20.6969C38.9993 17.3539 36.8359 14.4243 33.9622 12.2716C33.92 12.2399 33.8719 12.2166 33.8205 12.2031C33.7691 12.1896 33.7154 12.1861 33.6626 12.1928C33.6098 12.1995 33.5589 12.2163 33.5128 12.2422C33.4666 12.2682 33.4262 12.3027 33.3937 12.344C33.3612 12.3852 33.3374 12.4322 33.3235 12.4824C33.3097 12.5327 33.3061 12.585 33.313 12.6366C33.3198 12.6882 33.337 12.7379 33.3636 12.783C33.3901 12.8281 33.4255 12.8676 33.4677 12.8993C36.2162 14.9583 38.2851 17.7605 39.4176 20.9581C39.4526 21.0563 39.5256 21.1372 39.6211 21.1834C39.7165 21.2296 39.8266 21.2375 39.9279 21.2052Z" fill="#63811E"/>
</g>
</svg>
