<svg width="42" height="42" viewBox="0 0 42 42" fill="none" xmlns="http://www.w3.org/2000/svg">
<g id="farming-idea">
<path id="Vector" d="M39.7441 30.4567C39.7441 31.3094 39.2859 32.0985 38.5477 32.5249C37.7904 33.0594 26.7304 40.7785 22.0213 41.0458H21.8368C19.1704 41.0458 13.755 38.1312 11.4831 36.8394V26.4603C12.444 26.4667 14.3913 26.4794 16.5486 26.5303C18.8013 26.5876 21.2831 27.6058 23.2304 29.2794H27.1313C30.2622 29.2794 29.6386 32.773 26.7177 32.773H24.2104C23.8604 32.773 23.574 33.0594 23.574 33.4094C23.574 33.7594 23.8604 34.0458 24.2104 34.0458H26.7177C28.5822 34.0458 30.1541 32.7667 30.5932 31.0358L36.2949 28.3058C37.0459 27.9431 37.9177 27.9876 38.6241 28.4331C39.3304 28.8721 39.7441 29.6294 39.7441 30.4567ZM2.25586 25.3467V38.3094H10.2104V25.3467H2.25586ZM6.8695 32.5185V33.6258H5.59677V32.5185C5.01769 32.2639 4.61041 31.6849 4.61041 31.0167C4.61041 30.1258 5.33588 29.4003 6.23313 29.4003C7.13043 29.4003 7.85585 30.1258 7.85585 31.0167C7.85585 31.6849 7.44861 32.2639 6.8695 32.5185Z" fill="#63811E"/>
<path id="Vector_2" d="M27.4876 19.8287C27.4876 19.8287 28.0858 22.9787 26.5203 24.5505C25.324 25.7468 23.2112 25.6896 22.2758 25.5941V27.0196C21.8622 26.7714 21.4358 26.5423 21.0031 26.3387V25.5941C20.5704 25.645 19.8831 25.6959 19.1067 25.645C18.4576 25.4605 17.8085 25.3459 17.1594 25.295C16.5422 25.0787 15.9504 24.7669 15.4731 24.2896C13.4749 22.2914 14.2385 18.2887 14.2385 18.2887C14.2385 18.2887 18.2412 17.525 20.2394 19.5232C20.564 19.8414 20.8058 20.2168 21.0031 20.6178V17.1623C20.0676 17.245 18.184 17.2577 17.0958 16.1696C15.6067 14.6805 16.1731 11.7023 16.1731 11.7023C16.1731 11.7023 19.1576 11.1359 20.6403 12.6187C20.7803 12.7587 20.8949 12.9114 21.0031 13.0705V9.90137C21.0031 9.80594 21.0285 9.71684 21.0667 9.63411V9.61504C20.1821 8.85777 18.6867 7.31774 18.6867 5.52956C18.6867 3.00958 21.7031 0.954102 21.7031 0.954102C21.7031 0.954102 24.7131 3.00958 24.7131 5.52956C24.7131 7.31774 23.224 8.85777 22.3394 9.61504V10.1114C22.3394 10.2132 22.314 10.3023 22.2758 10.385V12.5359C22.4603 12.1223 22.7085 11.7341 23.0331 11.4096C24.9231 9.51957 28.7158 10.2387 28.7158 10.2387C28.7158 10.2387 29.4349 14.0314 27.5449 15.9214C26.0303 17.4359 23.3003 17.2768 22.2758 17.1496V21.4578C22.4094 21.2223 22.5685 20.9996 22.7658 20.8023C24.3376 19.2305 27.4876 19.8287 27.4876 19.8287Z" fill="#63811E"/>
</g>
</svg>
