<svg width="42" height="42" viewBox="0 0 42 42" fill="none" xmlns="http://www.w3.org/2000/svg">
<g id="price">
<path id="Vector" fill-rule="evenodd" clip-rule="evenodd" d="M9.5025 27.5625C9.58125 27.6938 9.625 27.8425 9.625 28V37.625H24.2025C25.1562 37.625 26.0837 37.3013 26.8363 36.715C29.1987 34.86 35.4375 29.96 37.4937 28.3412C38.1325 27.8425 38.5 27.0813 38.5 26.2675C38.5 25.5588 38.22 24.885 37.73 24.395C37.235 23.9021 36.5649 23.6252 35.8663 23.625H35.5688C35.07 23.625 34.5713 23.73 34.1163 23.94L27.0987 27.125C27.1162 27.265 27.125 27.5625 27.125 27.5625C27.125 28.6038 26.7138 29.61 25.97 30.345C25.235 31.08 24.2288 31.5 23.1875 31.5H19.25C18.7688 31.5 18.375 31.1063 18.375 30.625C18.375 30.1437 18.7688 29.75 19.25 29.75H23.1875C23.765 29.75 24.325 29.5225 24.7362 29.1112C25.1475 28.7 25.375 28.1488 25.375 27.5625C25.375 26.9823 25.1445 26.4259 24.7343 26.0157C24.3241 25.6055 23.7677 25.375 23.1875 25.375H16.625C14.6562 25.375 11.27 26.7663 9.5025 27.5625ZM7.875 28C7.875 27.5187 7.48125 27.125 7 27.125H4.375C3.89375 27.125 3.5 27.5187 3.5 28V36.75C3.5 37.2313 3.89375 37.625 4.375 37.625H7C7.48125 37.625 7.875 37.2313 7.875 36.75V28ZM32.375 4.375V21.875H35.0437C35.9596 21.8725 36.8373 21.5075 37.4849 20.8599C38.1325 20.2123 38.4975 19.3346 38.5 18.4187V7.83125C38.4975 6.91538 38.1325 6.03774 37.4849 5.39012C36.8373 4.7425 35.9596 4.37754 35.0437 4.375H32.375ZM30.625 21.875H20.125V4.375H30.625V21.875ZM7 12.25H10.6488C11.0075 11.235 11.9788 10.5 13.125 10.5C14.5775 10.5 15.75 11.6725 15.75 13.125C15.75 14.5775 14.5775 15.75 13.125 15.75C11.9788 15.75 11.0075 15.015 10.6488 14H7V14.1925C7 14.84 7.2275 15.47 7.65625 15.96L11.69 20.6675C12.3462 21.4375 13.3088 21.875 14.315 21.875H18.375V4.375H14.3587C13.3175 4.375 12.3288 4.8475 11.6725 5.6525C10.5438 7.04375 8.4875 9.58125 7.6125 10.6575C7.245 11.1125 7.035 11.6637 7.00875 12.2413L7 12.25ZM26.25 9.625V8.75C26.25 8.26875 25.8563 7.875 25.375 7.875C24.8937 7.875 24.5 8.26875 24.5 8.75V9.66875C23.9684 9.7767 23.4958 10.0783 23.1741 10.5151C22.8523 10.9519 22.7044 11.4926 22.7589 12.0323C22.8134 12.5721 23.0665 13.0723 23.4691 13.4359C23.8717 13.7995 24.395 14.0005 24.9375 14H25.8125C25.9263 14 26.04 14.0437 26.1187 14.1312C26.1975 14.21 26.25 14.3237 26.25 14.4375C26.25 14.5513 26.2063 14.665 26.1187 14.7438C26.0374 14.8254 25.9277 14.8724 25.8125 14.875H23.625C23.1437 14.875 22.75 15.2688 22.75 15.75C22.75 16.2312 23.1437 16.625 23.625 16.625H24.5V17.5C24.5 17.9812 24.8937 18.375 25.375 18.375C25.8563 18.375 26.25 17.9812 26.25 17.5V16.5813C26.745 16.4822 27.1902 16.2143 27.5095 15.8232C27.8287 15.4322 28.0021 14.9423 28 14.4375C28 13.8512 27.7725 13.3 27.3612 12.8888C26.95 12.4775 26.3988 12.25 25.8125 12.25H24.9375C24.8801 12.2507 24.8232 12.2394 24.7705 12.2168C24.7177 12.1942 24.6703 12.1608 24.6313 12.1188C24.5525 12.04 24.5 11.9262 24.5 11.8125C24.5 11.6988 24.5437 11.585 24.6313 11.5062C24.7188 11.4275 24.8237 11.375 24.9375 11.375H27.125C27.6063 11.375 28 10.9812 28 10.5C28 10.0188 27.6063 9.625 27.125 9.625H26.25ZM7 12.25H4.375C3.89375 12.25 3.5 12.6438 3.5 13.125C3.5 13.6062 3.89375 14 4.375 14H7V12.25ZM13.125 12.25C13.6062 12.25 14 12.6438 14 13.125C14 13.6062 13.6062 14 13.125 14C12.6438 14 12.25 13.6062 12.25 13.125C12.25 12.6438 12.6438 12.25 13.125 12.25Z" fill="#63811E"/>
</g>
</svg>
