<svg width="42" height="42" viewBox="0 0 42 42" fill="none" xmlns="http://www.w3.org/2000/svg">
<g id="farming" clip-path="url(#clip0_124_244450)">
<path id="Vector" d="M14.0643 22.9881L13.2628 23.4446L9.30943 25.6964L9.1085 25.8108V39.957C9.1085 41.1041 10.0387 42.0339 11.1858 42.0339C12.3326 42.0339 13.2628 41.1041 13.2628 39.957V26.3031H14.0643V39.957C14.0643 41.1041 14.9945 42.0339 16.1417 42.0339C17.2884 42.0339 18.2186 41.1041 18.2186 39.957V30.6469C17.8302 30.3475 17.5068 30.0349 17.2935 29.7385C16.904 29.1979 16.7076 28.7359 16.5344 28.3282C16.2206 27.59 15.9772 27.0179 14.6547 26.3029C14.4783 26.2077 14.2817 26.1096 14.0642 26.0084C13.9019 25.933 13.7288 25.8559 13.5412 25.7764L13.2626 25.6586L12.9132 25.5108L13.2626 25.3324L13.5205 25.2007C13.6699 25.1242 13.8543 25.0542 14.0642 24.9907C14.8141 24.7635 15.907 24.6253 17.0473 24.6253C17.3299 24.6253 17.7294 24.636 18.1956 24.6768C18.2034 24.6775 18.2107 24.678 18.2186 24.6789V21.823C18.2186 21.7234 18.2092 21.6263 18.1956 21.5305V20.6348L17.9371 20.7821L14.0643 22.9881ZM27.6545 16.0531C28.0508 15.789 28.2605 15.3507 28.2519 14.9073L23.1195 17.8305C24.5154 17.6773 26.0468 17.1281 27.6545 16.0531ZM21.1842 4.31189C21.1842 2.88758 18.8191 1.68958 15.6077 1.33745C15.5614 0.593544 14.7049 0 13.6521 0C12.5992 0 11.7429 0.593544 11.6965 1.33745C8.48522 1.68958 6.12012 2.88758 6.12012 4.31189C6.12012 5.39482 7.48781 6.34637 9.55387 6.89556C9.61233 6.26758 9.81511 5.65723 10.158 5.10602C10.7388 4.17262 11.6487 3.52145 12.719 3.2723C13.0268 3.20057 13.3419 3.16411 13.6558 3.16411C15.5767 3.16411 17.2236 4.47283 17.6605 6.34637C17.7032 6.52982 17.7316 6.71345 17.7487 6.8959C19.8158 6.34687 21.1842 5.39498 21.1842 4.31189Z" fill="#63811E"/>
<path id="Vector_2" d="M12.7949 3.59939C11.1523 3.98176 10.012 5.38221 9.88462 6.97838C9.85421 7.35722 9.88075 7.74698 9.97147 8.13691C10.4447 10.1697 12.4764 11.4339 14.5092 10.9606C16.3565 10.5306 17.5688 8.81361 17.4196 6.97838C17.4045 6.79391 17.3761 6.60844 17.3329 6.4228C16.8593 4.39017 14.8277 3.1258 12.7949 3.59939ZM14.0643 25.3236C13.9084 25.3742 13.7742 25.4278 13.6653 25.4834C13.8061 25.5431 13.9373 25.6012 14.0643 25.6588C14.5629 25.8851 14.9594 26.0978 15.2791 26.3027C16.8909 27.3356 16.5571 28.1712 17.5511 29.5527C17.7089 29.7721 17.9392 30.0073 18.2186 30.2408C19.7793 31.5459 22.895 32.7978 23.7498 30.9194C24.1676 31.5398 24.5487 32.2273 24.8729 32.9977C25.0947 33.5244 25.2906 34.0879 25.4569 34.691C25.7221 35.653 25.9081 36.7186 26.0012 37.8917C23.3905 38.0755 21.8412 39.5049 20.754 41.5805H32.0962C32.0962 41.5805 29.714 38.1068 26.8706 37.8821C26.6381 35.9715 26.1952 34.3531 25.6067 32.9846C25.811 31.5746 26.2008 30.349 26.713 29.2837C28.0273 31.3365 31.8311 28.6225 32.6523 27.0421C33.6323 25.1558 32.6827 24.4114 35.912 22.455C34.088 21.8346 26.0966 22.5925 26.2678 27.5135C26.2821 27.9213 26.3337 28.2662 26.4121 28.5639C25.8648 29.526 25.4078 30.6341 25.0945 31.9205C24.7442 31.267 24.3582 30.68 23.9467 30.1518C23.9805 29.8479 23.9818 29.5018 23.9375 29.0998C23.6274 26.2888 20.8513 25.2249 18.2189 24.9942C18.2112 24.9935 18.2036 24.9927 18.1959 24.992C16.5435 24.8504 14.951 25.036 14.0643 25.3236ZM32.7514 9.03403L31.8116 9.58658L32.0898 10.0014L24.0176 14.8955L19.8171 17.4423L18.1956 18.4254L16.0069 19.7524L14.3672 20.7465L13.2256 21.4388L9.10812 23.935L8.1779 24.4989C8.25888 24.9199 8.35111 25.351 8.45729 25.794L9.10812 25.4234L9.16642 25.3903L13.2626 23.0573L14.0641 22.6007L17.7458 20.5037L18.1956 20.2477L22.3601 17.8757L28.1975 14.551L33.2218 11.6893L38.2007 19.1117L38.5535 18.9045L34.0387 11.2241L34.4536 10.9879L33.4051 9.20421L32.9969 9.45167L32.7514 9.03403ZM5.13593 26.3436L3.52783 27.3185L4.09298 28.2801L5.46286 27.4997C5.40977 27.3939 5.36592 27.2819 5.33551 27.1634C5.26445 26.8869 5.19893 26.6142 5.13593 26.3436Z" fill="#63811E"/>
<path id="Vector_3" d="M5.43743 26.1611C5.50631 26.4612 5.58074 26.7674 5.66121 27.0806C5.68422 27.1698 5.71782 27.2531 5.75663 27.3329C5.8067 27.4359 5.86953 27.5297 5.94177 27.6145C6.1941 27.9107 6.56522 28.0903 6.9622 28.0904C7.07291 28.0904 7.1853 28.0767 7.29753 28.0479C8.01573 27.863 8.449 27.1302 8.2642 26.4115C8.25513 26.3762 8.2469 26.3419 8.23799 26.3066C8.2091 26.1929 8.18054 26.0793 8.15349 25.9678C8.04546 25.5229 7.95172 25.0962 7.87041 24.6859C7.84689 24.5675 7.82438 24.4501 7.80304 24.3341C7.66444 23.5835 7.56969 22.892 7.5124 22.2568C7.46418 21.7221 7.44218 21.2268 7.44234 20.7693C7.45578 17.7905 8.32535 16.4329 9.05094 15.7112C9.07026 15.6924 9.08942 15.6759 9.10857 15.6579V21.8234V23.5429L13.1322 21.1033L18.196 18.0331V16.6253C18.5611 16.8654 18.9715 17.093 19.4258 17.287L22.9654 15.141C22.7297 15.1729 22.5049 15.1882 22.2914 15.1887C20.9595 15.1887 19.9352 14.6296 19.1924 14.0262C18.8259 13.7264 18.5421 13.4212 18.3583 13.1998C18.2664 13.0887 18.199 12.999 18.1581 12.9421C18.1376 12.9135 18.1238 12.893 18.1164 12.8821L18.1149 12.8804C17.9541 12.6267 17.7219 12.4468 17.4615 12.347C17.2907 12.2643 17.1 12.2168 16.8976 12.2168H10.4069C10.298 12.2168 10.1928 12.2316 10.0915 12.2569C10.0302 12.2588 9.96839 12.2632 9.90606 12.2736C9.74092 12.3025 8.45874 12.5422 7.1759 13.7856C5.88633 15.0247 4.74107 17.2519 4.75451 20.7692C4.75451 21.2402 4.77467 21.7362 4.8155 22.2566C4.89983 23.3293 5.07539 24.5105 5.36032 25.8151C5.38552 25.9298 5.41072 26.0445 5.43743 26.1611Z" fill="#63811E"/>
</g>
<defs>
<clipPath id="clip0_124_244450">
<rect width="42" height="42" fill="white"/>
</clipPath>
</defs>
</svg>
