<svg width="42" height="42" viewBox="0 0 42 42" fill="none" xmlns="http://www.w3.org/2000/svg">
<g id="farming" clip-path="url(#clip0_124_244420)">
<path id="Vector" d="M8.75 36.75H7.875V37.625H8.75V36.75Z" fill="#63811E"/>
<path id="Vector_2" d="M3.5 35.875H2.625V36.75H3.5V35.875Z" fill="#63811E"/>
<path id="Vector_3" d="M14 34.5625H13.125V35.4375H14V34.5625Z" fill="#63811E"/>
<path id="Vector_4" d="M28.4375 34.5625H27.5625V35.4375H28.4375V34.5625Z" fill="#63811E"/>
<path id="Vector_5" d="M35 35.4375H34.125V36.3125H35V35.4375Z" fill="#63811E"/>
<path id="Vector_6" d="M38.5 37.1875H37.625V38.0625H38.5V37.1875Z" fill="#63811E"/>
<path id="Vector_7" d="M41.1249 39.8125L32.9266 38.9497L31.7423 39.7394C31.727 39.7495 31.7117 39.7587 31.6955 39.7666L30.8205 40.2041L30.4289 39.4214L31.2794 38.9961L31.9864 38.5249L30.1874 37.625H27.3061L25.6843 39.2468C25.6024 39.3291 25.4909 39.375 25.3749 39.375H24.4999V38.5H25.1938L26.5383 37.1556L24.9374 35.875H21.8749V32.3641C29.4039 32.1322 35.4374 25.9604 35.4374 18.375C27.8521 18.375 21.6803 24.4086 21.4484 31.9375H20.9886C20.7571 24.4086 14.5853 18.375 6.99994 18.375C6.99994 25.9604 13.0335 32.1322 20.5624 32.3641V35.875H17.0624L15.5316 37.0996L16.4298 37.6985C16.4933 37.7409 16.5444 37.7987 16.5786 37.8669L16.8953 38.5H18.3749V39.375H16.6249C16.4591 39.375 16.3078 39.2814 16.2334 39.1331L15.8479 38.3617L14.7424 37.625H11.8124L9.58513 38.5796L10.7624 39.4625L10.2374 40.1625L8.62307 38.9515L0.874941 39.8125L0.861816 41.125H41.1249V39.8125ZM33.8156 19.3782L34.4342 19.9968L23.4968 30.9343L22.8781 30.3157L33.8156 19.3782ZM19.3851 30.9413L9.32263 21.3163L9.92769 20.6841L19.9902 30.3091L19.3851 30.9413Z" fill="#63811E"/>
<path id="Vector_8" d="M14.4375 5.20581V8.3125C14.4375 8.45031 14.5023 8.57981 14.6125 8.6625L17.9375 11.1562V21H18.8125V10.9375C18.8125 10.7997 18.7477 10.6702 18.6375 10.5875L15.3125 8.09375V5.20581C16.3109 5.00325 17.0625 4.12081 17.0625 3.0625C17.0625 1.85456 16.0829 0.875 14.875 0.875C13.6671 0.875 12.6875 1.85456 12.6875 3.0625C12.6875 4.12081 13.4391 5.00325 14.4375 5.20581ZM14.875 2.625C15.1165 2.625 15.3125 2.821 15.3125 3.0625C15.3125 3.304 15.1165 3.5 14.875 3.5C14.6335 3.5 14.4375 3.304 14.4375 3.0625C14.4375 2.821 14.6335 2.625 14.875 2.625ZM24.5 10.7341L26.9303 9.114C27.0519 9.03263 27.125 8.89612 27.125 8.75V5.20581C28.1234 5.00325 28.875 4.12081 28.875 3.0625C28.875 1.85456 27.8954 0.875 26.6875 0.875C25.4796 0.875 24.5 1.85456 24.5 3.0625C24.5 4.12081 25.2516 5.00325 26.25 5.20581V8.51594L23.8197 10.136C23.6981 10.2174 23.625 10.3539 23.625 10.5V21H24.5V10.7341ZM26.6875 2.625C26.929 2.625 27.125 2.821 27.125 3.0625C27.125 3.304 26.929 3.5 26.6875 3.5C26.446 3.5 26.25 3.304 26.25 3.0625C26.25 2.821 26.446 2.625 26.6875 2.625ZM30.625 10.8933V12.6875H27.125C26.8835 12.6875 26.6875 12.8835 26.6875 13.125V18.375H27.5625V13.5625H31.0625C31.304 13.5625 31.5 13.3665 31.5 13.125V10.8933C32.4984 10.6908 33.25 9.80831 33.25 8.75C33.25 7.54206 32.2704 6.5625 31.0625 6.5625C29.8546 6.5625 28.875 7.54206 28.875 8.75C28.875 9.80831 29.6266 10.6908 30.625 10.8933ZM31.0625 8.3125C31.304 8.3125 31.5 8.5085 31.5 8.75C31.5 8.9915 31.304 9.1875 31.0625 9.1875C30.821 9.1875 30.625 8.9915 30.625 8.75C30.625 8.5085 30.821 8.3125 31.0625 8.3125ZM10.5 10.4558V13.125C10.5 13.3665 10.696 13.5625 10.9375 13.5625H14.4375V17.9375H15.3125V13.125C15.3125 12.8835 15.1165 12.6875 14.875 12.6875H11.375V10.4558C12.3734 10.2533 13.125 9.37081 13.125 8.3125C13.125 7.10456 12.1454 6.125 10.9375 6.125C9.72956 6.125 8.75 7.10456 8.75 8.3125C8.75 9.37081 9.50162 10.2533 10.5 10.4558ZM10.9375 7.875C11.179 7.875 11.375 8.071 11.375 8.3125C11.375 8.554 11.179 8.75 10.9375 8.75C10.696 8.75 10.5 8.554 10.5 8.3125C10.5 8.071 10.696 7.875 10.9375 7.875ZM20.7812 9.14331V22.3125H21.6562V9.14331C22.6546 8.94075 23.4062 8.05831 23.4062 7C23.4062 5.79206 22.4267 4.8125 21.2188 4.8125C20.0108 4.8125 19.0312 5.79206 19.0312 7C19.0312 8.05831 19.7829 8.94075 20.7812 9.14331ZM21.2188 6.5625C21.4602 6.5625 21.6562 6.7585 21.6562 7C21.6562 7.2415 21.4602 7.4375 21.2188 7.4375C20.9773 7.4375 20.7812 7.2415 20.7812 7C20.7812 6.7585 20.9773 6.5625 21.2188 6.5625Z" fill="#63811E"/>
</g>
<defs>
<clipPath id="clip0_124_244420">
<rect width="42" height="42" fill="white"/>
</clipPath>
</defs>
</svg>
