<svg width="42" height="42" viewBox="0 0 42 42" fill="none" xmlns="http://www.w3.org/2000/svg">
<g id="wheat-farming">
<path id="Vector" d="M36.0693 29.7076H5.93045C5.66211 29.7076 5.44434 29.4898 5.44434 29.2215C5.44434 28.9531 5.66211 28.7354 5.93045 28.7354H36.0693C36.3377 28.7354 36.5554 28.9531 36.5554 29.2215C36.5554 29.4898 36.3377 29.7076 36.0693 29.7076Z" fill="#63811E"/>
<path id="Vector_2" d="M13.6034 36.412C13.549 36.412 13.4946 36.4043 13.444 36.3848C13.1912 36.2954 13.059 36.0193 13.1446 35.7665L15.264 29.7115H13.8912L10.5079 36.1554C10.3834 36.3926 10.0918 36.4859 9.85066 36.3615C9.61344 36.237 9.52011 35.9415 9.64455 35.7043L13.164 28.9998C13.2496 28.8404 13.4129 28.7393 13.5957 28.7393H15.9446C16.104 28.7393 16.2479 28.817 16.3412 28.9454C16.4307 29.0737 16.454 29.237 16.4034 29.3887L14.0546 36.0931C13.9923 36.2876 13.8057 36.412 13.6034 36.412Z" fill="#63811E"/>
<path id="Vector_3" d="M13.6035 36.412C13.5491 36.412 13.4947 36.4042 13.4441 36.3848C13.1913 36.2954 13.0591 36.0192 13.1447 35.7665L15.4935 29.062C15.5597 28.8676 15.7463 28.7354 15.9524 28.7354H18.3013C18.4452 28.7354 18.5813 28.7976 18.6747 28.9104C18.768 29.0192 18.8069 29.167 18.7797 29.307L17.6091 36.0115C17.5624 36.2759 17.3135 36.4509 17.0452 36.4081C16.7808 36.3615 16.6058 36.1087 16.6485 35.8442L17.7219 29.7115H16.2947L14.0624 36.0892C13.9924 36.2876 13.8058 36.412 13.6035 36.412Z" fill="#63811E"/>
<path id="Vector_4" d="M17.1307 36.412C17.1035 36.412 17.0763 36.4081 17.0452 36.4042C16.7807 36.3576 16.6057 36.1048 16.6485 35.8404L17.823 29.1359C17.8619 28.9026 18.0641 28.7354 18.3013 28.7354H20.6502C20.9185 28.7354 21.1363 28.9531 21.1363 29.2215V35.9259C21.1363 36.1942 20.9185 36.412 20.6502 36.412C20.3819 36.412 20.1641 36.1942 20.1641 35.9259V29.7076H18.7096L17.6052 36.0076C17.5663 36.2448 17.3602 36.412 17.1307 36.412Z" fill="#63811E"/>
<path id="Vector_5" d="M24.1774 36.412C23.9441 36.412 23.7419 36.2448 23.6991 36.0115L22.5946 29.7115H21.1402V35.9298C21.1402 36.1981 20.9224 36.4159 20.6541 36.4159C20.3857 36.4159 20.168 36.1981 20.168 35.9298V29.2215C20.168 28.9531 20.3857 28.7354 20.6541 28.7354H23.003C23.2402 28.7354 23.4424 28.9065 23.4813 29.1359L24.6557 35.8442C24.7024 36.1087 24.5235 36.3615 24.2591 36.4081C24.2319 36.412 24.2046 36.412 24.1774 36.412Z" fill="#63811E"/>
<path id="Vector_6" d="M27.7003 36.412C27.4981 36.412 27.3114 36.2876 27.2414 36.0854L25.0092 29.7076H23.582L24.6553 35.8442C24.702 36.1087 24.5231 36.3615 24.2586 36.4081C23.9903 36.4548 23.7414 36.2759 23.6948 36.0115L22.5203 29.307C22.497 29.167 22.5359 29.0192 22.6253 28.9104C22.7186 28.8015 22.8548 28.7354 22.9986 28.7354H25.3475C25.5536 28.7354 25.7364 28.8676 25.8064 29.062L28.1553 35.7665C28.2448 36.0192 28.1125 36.2953 27.8559 36.3848C27.8053 36.4042 27.7509 36.412 27.7003 36.412Z" fill="#63811E"/>
<path id="Vector_7" d="M27.7007 36.412C27.4985 36.412 27.3119 36.2876 27.2419 36.0853L24.893 29.3809C24.8424 29.2331 24.8657 29.0659 24.9552 28.9376C25.0446 28.8092 25.1924 28.7314 25.3519 28.7314H27.7007C27.8796 28.7314 28.0469 28.8326 28.1324 28.992L31.6557 35.7003C31.7802 35.9376 31.6907 36.2331 31.4496 36.3576C31.2124 36.482 30.9169 36.3926 30.7924 36.1514L27.4091 29.7076H26.0402L28.1596 35.7626C28.2491 36.0153 28.1169 36.2914 27.8602 36.3809C27.8057 36.4042 27.7513 36.412 27.7007 36.412Z" fill="#63811E"/>
<path id="Vector_8" d="M36.0693 33.4214H29.7188C29.4504 33.4214 29.2327 33.2037 29.2327 32.9353C29.2327 32.667 29.4504 32.4492 29.7188 32.4492H36.0693C36.3377 32.4492 36.5554 32.667 36.5554 32.9353C36.5554 33.2037 36.3377 33.4214 36.0693 33.4214ZM11.651 33.4214H5.93045C5.66211 33.4214 5.44434 33.2037 5.44434 32.9353C5.44434 32.667 5.66211 32.4492 5.93045 32.4492H11.651C11.9193 32.4492 12.1371 32.667 12.1371 32.9353C12.1371 33.2037 11.9232 33.4214 11.651 33.4214ZM14.2566 17.1114C13.9882 17.1114 13.7704 16.8937 13.7704 16.6253V11.9353C13.7704 11.667 13.9882 11.4492 14.2566 11.4492C14.5249 11.4492 14.7427 11.667 14.7427 11.9353V16.6292C14.7427 16.8937 14.5249 17.1114 14.2566 17.1114Z" fill="#63811E"/>
<path id="Vector_9" d="M14.2566 24.2819C13.9883 24.2819 13.7705 24.0642 13.7705 23.7958V17.0486C13.7705 16.7803 13.9883 16.5625 14.2566 16.5625C14.525 16.5625 14.7427 16.7803 14.7427 17.0486V23.7919C14.7427 24.0642 14.525 24.2819 14.2566 24.2819Z" fill="#63811E"/>
<path id="Vector_10" d="M14.2566 29.7076C13.9883 29.7076 13.7705 29.4898 13.7705 29.2214V24.2281C13.7705 23.9598 13.9883 23.742 14.2566 23.742C14.525 23.742 14.7427 23.9598 14.7427 24.2281V29.2253C14.7427 29.4937 14.525 29.7076 14.2566 29.7076ZM27.7511 17.1114C27.4827 17.1114 27.265 16.8937 27.265 16.6253V11.9353C27.265 11.667 27.4827 11.4492 27.7511 11.4492C28.0194 11.4492 28.2372 11.667 28.2372 11.9353V16.6292C28.2372 16.8937 28.0194 17.1114 27.7511 17.1114Z" fill="#63811E"/>
<path id="Vector_11" d="M27.7512 24.2819C27.4829 24.2819 27.2651 24.0642 27.2651 23.7958V17.0486C27.2651 16.7803 27.4829 16.5625 27.7512 16.5625C28.0196 16.5625 28.2374 16.7803 28.2374 17.0486V23.7919C28.2374 24.0642 28.0196 24.2819 27.7512 24.2819Z" fill="#63811E"/>
<path id="Vector_12" d="M27.7511 29.7076C27.4827 29.7076 27.265 29.4898 27.265 29.2214V24.2281C27.265 23.9598 27.4827 23.742 27.7511 23.742C28.0194 23.742 28.2372 23.9598 28.2372 24.2281V29.2253C28.2372 29.4937 28.0194 29.7076 27.7511 29.7076ZM14.2566 17.1114C13.9883 17.1114 13.7705 16.8937 13.7705 16.6253V11.9353C13.7705 11.667 13.9883 11.4492 14.2566 11.4492C14.525 11.4492 14.7427 11.667 14.7427 11.9353V16.6292C14.7427 16.8937 14.525 17.1114 14.2566 17.1114Z" fill="#63811E"/>
<path id="Vector_13" d="M14.2566 24.2819C13.9883 24.2819 13.7705 24.0642 13.7705 23.7958V17.0486C13.7705 16.7803 13.9883 16.5625 14.2566 16.5625C14.525 16.5625 14.7427 16.7803 14.7427 17.0486V23.7919C14.7427 24.0642 14.525 24.2819 14.2566 24.2819Z" fill="#63811E"/>
<path id="Vector_14" d="M14.2566 29.7068C13.9883 29.7068 13.7705 29.489 13.7705 29.2207V24.2273C13.7705 23.959 13.9883 23.7412 14.2566 23.7412C14.525 23.7412 14.7427 23.959 14.7427 24.2273V29.2245C14.7427 29.4929 14.525 29.7068 14.2566 29.7068Z" fill="#63811E"/>
<path id="Vector_15" d="M32.8924 21.0851C32.9896 21.1823 33.0441 21.3184 33.0324 21.4546C33.0091 22.034 32.8302 24.9701 31.8813 25.9229C30.8235 26.9729 29.1046 26.9729 28.0546 25.9229C27.9419 25.8101 27.8369 25.6896 27.7474 25.5651C27.6541 25.6934 27.553 25.814 27.4402 25.9229C26.9152 26.4479 26.2191 26.7084 25.5307 26.7084C24.8424 26.7084 24.1463 26.4518 23.6135 25.9268C22.6646 24.9701 22.4857 22.034 22.4624 21.4546C22.4546 21.3184 22.5052 21.1823 22.6024 21.0851C22.6996 20.9918 22.8319 20.9412 22.968 20.9451C23.5474 20.9684 26.4913 21.1434 27.4402 22.104C27.553 22.2168 27.6541 22.3373 27.7474 22.4618C27.8369 22.3296 27.9419 22.209 28.0546 22.0962C29.0074 21.1434 31.9474 20.9684 32.5269 20.9451C32.663 20.9373 32.7952 20.9918 32.8924 21.0851ZM11.5463 9.71789C11.5463 8.36845 13.4985 6.17122 13.8913 5.74734C13.9846 5.64622 14.113 5.58789 14.2491 5.58789C14.3852 5.58789 14.5096 5.64622 14.603 5.74345C14.9957 6.17122 16.9557 8.36845 16.9557 9.71789C16.9557 11.1957 15.7463 12.4129 14.2569 12.4207C12.7557 12.4207 11.5463 11.2073 11.5463 9.71789ZM25.0407 9.71789C25.0407 8.36845 26.993 6.17122 27.3818 5.74734C27.4752 5.64622 27.6074 5.58789 27.7435 5.58789C27.8796 5.58789 28.0119 5.64622 28.1013 5.74345C28.4941 6.17122 30.4541 8.36845 30.4541 9.71789C30.4541 11.1957 29.2407 12.4129 27.7513 12.4207C26.258 12.4207 25.0407 11.2073 25.0407 9.71789ZM23.6174 18.7479C22.6685 17.799 22.4896 14.8629 22.4663 14.2873C22.4585 14.1512 22.5091 14.019 22.6063 13.9218C22.7035 13.8246 22.8357 13.7779 22.9719 13.7779C23.5513 13.8051 26.4952 13.9762 27.4441 14.9368C27.5569 15.0496 27.658 15.1701 27.7513 15.2946C27.8407 15.1662 27.9457 15.0457 28.0585 14.929C29.0113 13.9762 31.9513 13.8051 32.5307 13.7779C32.6669 13.7779 32.7991 13.8246 32.8963 13.9218C32.9935 14.019 33.048 14.1512 33.0363 14.2873C33.013 14.8668 32.8341 17.8029 31.8852 18.7479C31.3757 19.2612 30.6952 19.5451 29.968 19.5451H29.9641C29.2446 19.5412 28.5641 19.2573 28.0585 18.7479C27.9419 18.6351 27.8407 18.5146 27.7513 18.3901C27.658 18.5184 27.5569 18.639 27.4441 18.7479C26.9385 19.2573 26.2619 19.5412 25.5385 19.5451H25.5346C24.8074 19.5451 24.1269 19.2612 23.6174 18.7479ZM19.398 13.9179C19.4952 14.0151 19.5419 14.1473 19.538 14.2834C19.5107 14.8629 19.3319 17.799 18.3791 18.744C17.8696 19.2573 17.1891 19.5412 16.4696 19.5412H16.458C15.7385 19.5373 15.0619 19.2534 14.5524 18.744C14.4396 18.6312 14.3385 18.5107 14.2452 18.3862C14.1519 18.5146 14.0507 18.6351 13.938 18.744C13.4324 19.2534 12.7557 19.5373 12.0363 19.5412H12.0285C11.3091 19.5412 10.6285 19.2573 10.1113 18.744C9.16241 17.7951 8.98352 14.859 8.96019 14.2834C8.9563 14.1473 9.00296 14.0151 9.10019 13.9179C9.19741 13.8207 9.32963 13.774 9.46574 13.774C10.0491 13.8012 12.9891 13.9723 13.9419 14.9329C14.0546 15.0457 14.1557 15.1662 14.2413 15.2907C14.3346 15.1623 14.4357 15.0418 14.5524 14.9329C15.5013 13.9762 18.4413 13.8051 19.0246 13.774C19.1646 13.774 19.3007 13.8207 19.398 13.9179ZM19.398 21.0851C19.4952 21.1823 19.5419 21.3184 19.538 21.4546C19.5107 22.034 19.3319 24.9701 18.3869 25.9229C17.3252 26.9729 15.6102 26.9729 14.5602 25.9229C14.4435 25.8101 14.3424 25.6896 14.2491 25.5651C14.1557 25.6934 14.0546 25.814 13.9419 25.9229C13.4169 26.4479 12.7285 26.7084 12.0324 26.7162C11.3402 26.7162 10.648 26.4557 10.123 25.9307C9.17019 24.974 8.9913 22.0379 8.96407 21.4584C8.96019 21.3223 9.00685 21.1862 9.10407 21.089C9.2013 20.9957 9.33352 20.9451 9.46963 20.949C10.053 20.9723 12.993 21.1473 13.9457 22.1079C14.0585 22.2207 14.1596 22.3412 14.2452 22.4657C14.3385 22.3334 14.4396 22.2129 14.5563 22.1001C15.5052 21.1473 18.4452 20.9723 19.0285 20.949C19.1646 20.9373 19.3007 20.9918 19.398 21.0851Z" fill="#63811E"/>
</g>
</svg>
