<svg width="42" height="42" viewBox="0 0 42 42" fill="none" xmlns="http://www.w3.org/2000/svg">
<g id="farming" clip-path="url(#clip0_124_244434)">
<path id="Vector" d="M21.0219 35.4375H20.9781C20.7528 32.2599 18.1099 29.75 14.875 29.75C14.875 32.9849 17.3849 35.6278 20.5625 35.8531V41.125H21.4375V35.8531C24.6151 35.6278 27.125 32.9853 27.125 29.75C23.8901 29.75 21.2472 32.2599 21.0219 35.4375ZM7.45937 37.625H7.41563C7.19031 34.4474 4.54737 31.9375 1.3125 31.9375C1.3125 35.1724 3.82244 37.8153 7 38.0406V41.125H7.875V38.0406C11.0526 37.8153 13.5625 35.1728 13.5625 31.9375C10.3276 31.9375 7.68469 34.4474 7.45937 37.625ZM35 41.125V38.0406C38.1776 37.8153 40.6875 35.1728 40.6875 31.9375C37.4526 31.9375 34.8097 34.4474 34.5844 37.625H34.5406C34.3153 34.4474 31.6724 31.9375 28.4375 31.9375C28.4375 35.1724 30.9474 37.8153 34.125 38.0406V41.125H35ZM34.125 17.5C35.0914 17.5 35.875 16.7164 35.875 15.75C35.875 14.9354 35.3159 14.2568 34.5625 14.0617V7H33.6875V14.0617C32.9341 14.2568 32.375 14.9354 32.375 15.75C32.375 16.7164 33.1586 17.5 34.125 17.5Z" fill="#63811E"/>
<path id="Vector_2" d="M24.9375 7H28.4375C28.9205 7 29.3125 7.392 29.3125 7.875V21H41.125V0.875H24.9375V7ZM32.375 12.7221V3.5H35.875V12.7221C36.9202 13.3276 37.625 14.4554 37.625 15.75C37.625 17.6829 36.0579 19.25 34.125 19.25C32.1921 19.25 30.625 17.6829 30.625 15.75C30.625 14.4554 31.3298 13.3276 32.375 12.7221ZM12.6875 7.875C12.6875 7.392 13.0795 7 13.5625 7H17.0625V0.875H0.875V21H12.6875V7.875ZM4.9105 16.625C3.95806 16.625 3.3775 15.5776 3.88237 14.77L4.9105 13.125L5.93863 14.77C6.4435 15.5776 5.86294 16.625 4.9105 16.625ZM9.527 14.4375C8.57456 14.4375 7.994 13.3901 8.49888 12.5825L9.527 10.9375L10.5551 12.5825C11.0596 13.3901 10.479 14.4375 9.527 14.4375ZM10.9375 8.75H4.8125C3.84606 8.75 3.0625 7.96644 3.0625 7C3.0625 6.03356 3.84606 5.25 4.8125 5.25C4.96694 5.25 5.11394 5.27625 5.25656 5.31388C5.25569 5.292 5.25 5.27187 5.25 5.25C5.25 4.04206 6.22956 3.0625 7.4375 3.0625C8.64544 3.0625 9.625 4.04206 9.625 5.25C9.625 5.27056 9.61931 5.28981 9.61888 5.30994C10.0874 5.42938 10.4759 5.7365 10.7074 6.14819C10.7822 6.13506 10.8588 6.125 10.9375 6.125C11.6624 6.125 12.25 6.71256 12.25 7.4375C12.25 8.16244 11.6624 8.75 10.9375 8.75Z" fill="#63811E"/>
<path id="Vector_3" d="M13.5625 26.25H28.4375V7.875H13.5625V26.25ZM17.0625 24.5H16.1875V23.625H17.0625V24.5ZM21.4375 24.5H20.5625V23.625H21.4375V24.5ZM25.8125 24.5H24.9375V23.625H25.8125V24.5ZM24.0625 12.25H26.6875V21.4375H24.0625V12.25ZM19.6875 16.1875H22.3125V21.4375H19.6875V16.1875ZM15.3125 14H17.9375V21.4375H15.3125V14Z" fill="#63811E"/>
</g>
<defs>
<clipPath id="clip0_124_244434">
<rect width="42" height="42" fill="white"/>
</clipPath>
</defs>
</svg>
