<svg width="108" height="109" viewBox="0 0 108 109" fill="none" xmlns="http://www.w3.org/2000/svg">
<g id="Icon">
<circle id="V&#195;&#178;ng tr&#195;&#178;n" opacity="0.05" cx="54" cy="54.499" r="54" fill="#E25C5C"/>
<circle id="V&#195;&#178;ng tr&#195;&#178;n_2" opacity="0.1" cx="54" cy="54.499" r="43" fill="#E25C5C"/>
<circle id="V&#195;&#178;ng tr&#195;&#178;n_3" cx="54" cy="54.499" r="32" fill="#E25C5C"/>
<g id="logout">
<mask id="mask0_721_37347" style="mask-type:alpha" maskUnits="userSpaceOnUse" x="42" y="43" width="20" height="20">
<rect id="Bounding box" x="42" y="43" width="20" height="20" fill="#D9D9D9"/>
</mask>
<g mask="url(#mask0_721_37347)">
<path id="logout_2" d="M46.4244 60.0831C46.0034 60.0831 45.6471 59.9373 45.3555 59.6456C45.0638 59.354 44.918 58.9977 44.918 58.5767V47.4229C44.918 47.002 45.0638 46.6457 45.3555 46.354C45.6471 46.0623 46.0034 45.9165 46.4244 45.9165H52.0093V47.1665H46.4244C46.3603 47.1665 46.3015 47.1932 46.2481 47.2466C46.1947 47.3 46.1679 47.3588 46.1679 47.4229V58.5767C46.1679 58.6408 46.1947 58.6996 46.2481 58.753C46.3015 58.8064 46.3603 58.8332 46.4244 58.8332H52.0093V60.0831H46.4244ZM55.5269 56.5575L54.6616 55.6537L56.6904 53.6248H49.5814V52.3748H56.6904L54.6616 50.346L55.5269 49.4422L59.0846 52.9998L55.5269 56.5575Z" fill="white"/>
</g>
</g>
</g>
</svg>
