<svg width="108" height="109" viewBox="0 0 108 109" fill="none" xmlns="http://www.w3.org/2000/svg">
<g id="Icon">
<circle id="Ellipse 19" opacity="0.05" cx="54" cy="54.5" r="54" fill="#265426"/>
<circle id="Ellipse 18" opacity="0.1" cx="54" cy="54.5" r="43" fill="#265426"/>
<circle id="Ellipse 17" cx="54" cy="54.5" r="32" fill="#265426"/>
<g id="local_mall">
<mask id="mask0_124_245676" style="mask-type:alpha" maskUnits="userSpaceOnUse" x="41" y="42" width="25" height="25">
<rect id="Bounding box" x="41.7578" y="42.0737" width="24" height="24" fill="#D9D9D9"/>
</mask>
<g mask="url(#mask0_124_245676)">
<path id="local_mall_2" d="M47.3732 63.0737C46.9258 63.0737 46.5447 62.9164 46.2299 62.6016C45.9152 62.2869 45.7578 61.9058 45.7578 61.4584V50.6891C45.7578 50.2417 45.9152 49.8606 46.2299 49.5458C46.5447 49.2311 46.9258 49.0737 47.3732 49.0737H49.7578C49.7578 47.9596 50.146 47.0144 50.9222 46.2382C51.6985 45.4619 52.6437 45.0737 53.7578 45.0737C54.8719 45.0737 55.8171 45.4619 56.5934 46.2382C57.3697 47.0144 57.7578 47.9596 57.7578 49.0737H60.1424C60.5899 49.0737 60.971 49.2311 61.2857 49.5458C61.6004 49.8606 61.7578 50.2417 61.7578 50.6891V61.4584C61.7578 61.9058 61.6004 62.2869 61.2857 62.6016C60.971 62.9164 60.5899 63.0737 60.1424 63.0737H47.3732ZM47.3732 62.0737H60.1424C60.2963 62.0737 60.4373 62.0096 60.5655 61.8814C60.6937 61.7532 60.7578 61.6122 60.7578 61.4584V50.6891C60.7578 50.5353 60.6937 50.3942 60.5655 50.266C60.4373 50.1378 60.2963 50.0737 60.1424 50.0737H47.3732C47.2194 50.0737 47.0783 50.1378 46.9501 50.266C46.8219 50.3942 46.7578 50.5353 46.7578 50.6891V61.4584C46.7578 61.6122 46.8219 61.7532 46.9501 61.8814C47.0783 62.0096 47.2194 62.0737 47.3732 62.0737ZM53.7578 55.0737C54.8719 55.0737 55.8171 54.6856 56.5934 53.9093C57.3697 53.133 57.7578 52.1878 57.7578 51.0737H56.7578C56.7578 51.9071 56.4661 52.6154 55.8828 53.1987C55.2995 53.7821 54.5911 54.0737 53.7578 54.0737C52.9245 54.0737 52.2161 53.7821 51.6328 53.1987C51.0495 52.6154 50.7578 51.9071 50.7578 51.0737H49.7578C49.7578 52.1878 50.146 53.133 50.9222 53.9093C51.6985 54.6856 52.6437 55.0737 53.7578 55.0737ZM50.7578 49.0737H56.7578C56.7578 48.2404 56.4661 47.5321 55.8828 46.9487C55.2995 46.3654 54.5911 46.0737 53.7578 46.0737C52.9245 46.0737 52.2161 46.3654 51.6328 46.9487C51.0495 47.5321 50.7578 48.2404 50.7578 49.0737Z" fill="white"/>
</g>
</g>
</g>
</svg>
